<?xml version="1.0" standalone="no"?> <!DOCTYPE svg PUBLIC "-//W3C//DTD SVG 1.0//EN" "http://www.w3.org/TR/2001/REC-SVG-20010904/DTD/svg10.dtd" > <svg xmlns="http://www.w3.org/2000/svg" width="100%" height="100%">
<defs >
<font id="Sedan-Regular" horiz-adv-x="534" ><font-face
    font-family="Sedan"
    units-per-em="1000"
    panose-1="2 0 5 3 0 0 0 2 0 4"
    ascent="978"
    descent="-407"
    alphabetic="0" />
<missing-glyph horiz-adv-x="260" />
<glyph unicode=" " glyph-name="space" horiz-adv-x="260" />
<glyph unicode="!" glyph-name="exclam" horiz-adv-x="320" d="M184 178Q175 169 168 169Q141 169 141 204V280Q141 527 85 656Q129 684 157 684Q214 684 214 567Q214 524 199 393T184 222T184 178ZM103 66T119 83T159 101T200 85T217 45T202 5T163 -13T121 2T103 42Z" />
<glyph unicode="&quot;" glyph-name="quotedbl" horiz-adv-x="380" d="M88 479T72 545T56 633T69 668T99 682T129 669T142 634T126 546T111 442Q106 438 99 438T87 442Q88 479 72 545ZM269 479T253 545T237 633T250 668T280 682T310 669T323 634T307 546T292 442Q287
438 280 438T268 442Q269 479 253 545Z" />
<glyph unicode="#" glyph-name="numbersign" horiz-adv-x="554" d="M527 231H356L324 28Q320 -2 275 -2L308 231H178L146 28Q142 -2 97 -2L130 231H48Q31 230 23 241T12 275L137 278L157 415L68 418Q51 418 43 428T30 462L163 460L191 652Q193 668 208 677T238
687L252 688L215 459L341 458L369 652Q371 668 386 677T416 687L430 688L392 457L473 456Q489 456 500 443T515 416L518 402L384 406L365 284L482 287Q498 287 509 273T524 245L527 231ZM208 413L186 279L316 283L334 408L208 413Z" />
<glyph unicode="$" glyph-name="dollar" horiz-adv-x="520" d="M409 690Q407 700 421 700T439 692Q461 610 465 536Q462 530 449 530T433 533Q408 609 362 631Q340 642 310 644L295 398Q379 347 407 319Q467 260 467 183T412 57T272 0L267 -90Q266 -102 259 -109T244
-116T228 -113L234 -2Q166 1 109 27L117 8Q120 2 113 -3T96 -9T84 -4Q53 77 46 180Q46 190 61 190T78 183Q93 133 132 87T236 35L250 303Q203 330 173 352T135 383T114 407T94 438Q80 476 80 511Q80 575 132 622T270 679L273 739Q275 771 303 771Q310 771 318 769Q316
744 312 682Q358 682 404 669L413 667Q409 683 409 690ZM364 140Q364 219 288 277Q277 77 274 36Q319 43 341 72T364 140ZM178 541Q178 476 256 423L268 643Q178 629 178 541Z" />
<glyph unicode="%" glyph-name="percent" horiz-adv-x="809" d="M194 -9Q178 -33 167 -33T138 -16L625 682Q638 701 648 701Q663 701 680 684L194 -9ZM658 322T700 274T742 160T699 44T588 -5T478 42T435 158T479 275T591 322ZM638 61T672 87T707 160T673 231T588
256T504 231T470 158T503 86T587 61ZM294 672T336 624T378 510T335 394T224 345T114 392T71 508T115 625T227 672ZM274 411T308 437T343 510T309 581T224 606T140 581T106 508T139 436T223 411Z" />
<glyph unicode="&amp;" glyph-name="ampersand" horiz-adv-x="820" d="M638 429L755 432Q764 432 764 417T755 402H712Q696 402 684 375Q661 328 616 266T512 148Q631 49 700 49Q738 49 764 78Q773 88 780 88Q793 88 793 76Q793 55 749 21T648 -13Q559 -13 438
90Q302 -13 186 -13Q122 -13 77 22T31 127Q31 207 88 267Q119 299 141 317T207 367Q151 465 151 531T200 634T308 672T403 640T440 566T417 491T369 436T299 383Q367 279 481 175Q532 226 562 279T592 365Q592 379 587 390T572 401H531Q523 401 523 416T531 431L638
429ZM248 62Q325 62 407 118Q302 214 226 335Q121 255 121 176Q121 119 158 91T248 62ZM269 636T250 615T230 547T279 417Q361 487 361 561T298 636Q269 636 250 615Z" />
<glyph unicode="&apos;" glyph-name="quotesingle" horiz-adv-x="300" d="M175 543Q175 579 127 579Q121 579 114 578Q88 591 88 620T104 665T149 682T199 656T219 596Q219 531 185 491T87 416L76 435Q118 456 146 487T175 543Z" />
<glyph unicode="(" glyph-name="parenleft" horiz-adv-x="485" d="M506 -364Q518 -364 518 -385T506 -407Q427 -407 349 -357T207 -221T105 -7T66 263T105 526T208 726T350 851T507 896Q519 896 519 875T506 853Q413 853 329 772T193 555T141 261T194 -45T331
-278T506 -364Z" />
<glyph unicode=")" glyph-name="parenright" horiz-adv-x="485" d="M-21 -364Q69 -364 153 -278T291 -45T344 260T293 555T157 772T-21 853Q-34 853 -34 874T-22 896Q57 896 135 851T276 727T379 526T419 264T380 -6T278 -221T137 -357T-21 -407Q-33 -407 -33
-386T-21 -364Z" />
<glyph unicode="*" glyph-name="asterisk" horiz-adv-x="500" d="M78 545Q69 550 69 561T77 582T92 591T105 588L232 496L228 658Q228 664 236 668T252 673Q271 673 271 655Q271 651 270 633Q265 545 264 495L400 579Q406 582 412 582T424 576T430 560T419 545L278
473L420 404Q432 397 432 386T424 367T408 359T394 362L263 449L270 284Q270 269 248 269T226 286L233 446L96 358Q93 356 86 356T71 364T64 382T74 397L219 471L78 545Z" />
<glyph unicode="+" glyph-name="plus" horiz-adv-x="520" d="M284 29Q284 2 255 2Q252 2 248 2L237 5Q237 47 235 233H70Q53 233 44 243T34 265L33 276Q74 276 234 278L232 458Q232 505 275 505Q279 505 284 505V278L441 281Q488 281 488 240Q488 236 488 233H284V29Z" />
<glyph unicode="," glyph-name="comma" horiz-adv-x="260" d="M159 -37Q159 -1 111 -1Q105 -1 98 -2Q72 11 72 40T88 85T133 102T183 76T203 16Q203 -49 169 -89T71 -164L60 -145Q102 -124 130 -93T159 -37Z" />
<glyph unicode="-" glyph-name="hyphen" horiz-adv-x="250" d="M6 227Q10 227 37 227T129 240T211 254Q240 254 240 230Q240 226 238 214Q198 212 132 197T46 181T18 192T8 216L6 227Z" />
<glyph unicode="." glyph-name="period" horiz-adv-x="260" d="M187 22T171 5T131 -13T90 3T73 43T88 83T127 101T169 86T187 46Z" />
<glyph unicode="/" glyph-name="slash" horiz-adv-x="580" d="M99 -113Q87 -137 74 -137T43 -120L509 746Q520 766 530 766Q548 766 563 749L99 -113Z" />
<glyph unicode="0" glyph-name="zero" horiz-adv-x="556" d="M368 455T428 386T489 222T427 57T269 -13T111 54T50 221T113 388T272 455ZM342 72T395 111T448 222T395 332T269 370T143 332T91 220T142 110T268 72Z" />
<glyph unicode="1" glyph-name="one" horiz-adv-x="404" d="M196 442L324 445Q331 445 331 430T326 415H256Q244 415 244 398V118Q244 30 265 30H326Q334 30 334 15T328 0L207 1L79 -2Q72 -2 72 13T77 28H147Q159 28 159 45V325Q159 413 138 413H77Q69 413 69
428T75 443L196 442Z" />
<glyph unicode="2" glyph-name="two" horiz-adv-x="483" d="M408 135Q410 143 425 143T441 137L429 -22Q429 -29 414 -29T398 -22V0H46Q38 0 38 8T46 22Q154 87 231 178T309 338Q309 371 286 393T228 416T168 393T143 333T158 278Q144 256 107 256Q87 256 73 271T58
310Q58 368 113 411T237 455T356 421T406 328Q406 209 159 62L161 59Q179 60 205 60Q350 60 403 97L408 135Z" />
<glyph unicode="3" glyph-name="three" horiz-adv-x="551" d="M74 -186Q42 -159 42 -124T59 -72T95 -55H113Q145 -194 259 -194Q316 -194 357 -154T399 -45T365 74T273 139Q210 114 192 73Q188 64 188 58V53Q173 48 162 55T150 80T169 117T216 151T272 184T319
235T339 311T315 382T248 410T176 385T147 333T160 281Q144 247 107 247Q86 247 71 262T56 303Q56 367 127 411T265 455T385 419T438 325Q438 232 315 165V163Q402 139 448 84T495 -35Q495 -126 416 -181T234 -237T74 -186Z" />
<glyph unicode="4" glyph-name="four" horiz-adv-x="556" d="M364 -223L200 -226Q193 -226 193 -211T198 -195H293Q306 -195 308 -184Q308 -180 308 -171V5H48Q37 5 37 20T49 51L371 472Q408 472 408 451Q408 447 406 417Q398 327 398 190V53H496Q509 53 509 29T496
5H398V-105Q398 -193 419 -193L500 -192Q508 -192 508 -208T502 -224L364 -223ZM308 51V257L310 327H307L103 51H308Z" />
<glyph unicode="5" glyph-name="five" horiz-adv-x="556" d="M237 221Q335 221 403 160T472 0T387 -168T198 -238Q139 -238 96 -212T53 -148Q53 -128 67 -112T104 -95Q109 -95 119 -97Q127 -141 157 -166T227 -191Q310 -191 357 -141T404 -19T344 102T192 152Q152
152 145 136Q139 126 125 126T110 135L141 421L369 440Q426 444 443 473Q447 480 456 480T465 472Q460 433 436 402T363 367L172 350L154 209Q193 221 237 221Z" />
<glyph unicode="6" glyph-name="six" horiz-adv-x="556" d="M239 294Q226 294 226 309T256 338T322 352Q398 352 450 307T502 194Q502 98 437 43T282 -13T129 53T64 238Q64 323 94 397T170 521T273 608Q382 680 470 693Q488 693 488 680Q488 674 484 673Q325 607
245 500T165 267T204 83T301 24Q344 24 373 63T402 164T375 267T295 308Q278 308 259 301T239 294Z" />
<glyph unicode="7" glyph-name="seven" horiz-adv-x="480" d="M486 434Q486 429 478 416Q377 288 297 141Q253 60 227 -26T201 -187Q201 -196 196 -200Q184 -208 156 -223T120 -239Q114 -239 114 -202T126 -108T164 4T214 103T280 202Q340 284 408 366H269Q177
366 138 361T79 338Q74 334 62 310Q60 307 53 307T38 311T30 318T34 328L46 353Q55 371 72 413T94 472Q96 475 101 475T114 471T123 462L117 442H336Q384 442 426 445T471 448Q486 448 486 434Z" />
<glyph unicode="8" glyph-name="eight" horiz-adv-x="524" d="M66 153Q66 209 102 258T188 341Q84 412 84 505Q84 576 144 630T278 685T398 645T444 549T407 445T320 366Q374 329 404 300Q458 246 458 181Q458 92 397 40T254 -13T120 34T66 153ZM376 141Q376 238
219 321Q142 260 142 177Q142 110 180 72T271 34T350 66T376 141ZM210 442T228 431T264 406T288 389Q364 450 364 523Q364 572 331 605T253 639T182 612T155 545T182 474Z" />
<glyph unicode="9" glyph-name="nine" horiz-adv-x="548" d="M315 155Q328 155 328 140T298 111T232 97Q156 97 105 141T54 253Q54 349 118 402T271 455T425 389T490 204Q490 119 459 45T383 -77T280 -162Q172 -233 83 -246Q65 -246 65 -233Q65 -227 69 -226Q229
-160 309 -55T389 176T350 359T253 418Q209 418 182 381T154 282T180 181T259 141Q276 141 295 148T315 155Z" />
<glyph unicode=":" glyph-name="colon" horiz-adv-x="260" d="M187 358T171 341T131 323T90 339T73 379T88 419T127 437T169 422T187 382ZM187 22T171 5T131 -13T90 3T73 43T88 83T127 101T169 86T187 46Z" />
<glyph unicode=";" glyph-name="semicolon" horiz-adv-x="260" d="M189 358T173 341T133 323T92 339T75 379T90 419T129 437T171 422T189 382ZM159 -37Q159 -1 111 -1Q105 -1 98 -2Q72 11 72 40T88 85T133 102T183 76T203 16Q203 -49 169 -89T71 -164L60 -145Q102
-124 130 -93T159 -37Z" />
<glyph unicode="&lt;" glyph-name="less" horiz-adv-x="473" d="M34 223T34 235T97 293T242 383T362 426Q382 426 395 420T411 406L414 400Q331 367 258 326T161 266T122 235Q154 203 242 154T414 70Q410 59 396 52T362 44Q323 44 242 87T98 176Z" />
<glyph unicode="=" glyph-name="equal" horiz-adv-x="520" d="M440 360Q467 360 477 351T487 330T487 314H71Q54 314 45 324T35 344L34 355L440 360ZM440 196Q467 196 477 187T487 166T487 150H71Q54 150 45 160T35 180L34 191L440 196Z" />
<glyph unicode="&gt;" glyph-name="greater" horiz-adv-x="454" d="M415 247T415 235T352 177T207 87T87 44Q67 44 54 50T38 64L35 70Q119 104 192 145Q295 203 327 235Q313 247 289 265T191 325T35 400Q39 411 53 418T87 426Q126 426 207 383T351 294Z" />
<glyph unicode="?" glyph-name="question" horiz-adv-x="406" d="M115 196L108 354Q108 374 156 374Q239 374 257 383T289 402Q314 423 314 473T271 566T171 609Q134 609 86 571Q45 584 45 626Q45 651 63 670T111 689Q210 689 283 613T356 435Q356 364 309 324T189
283Q178 283 156 285Q154 255 154 223T156 178Q147 170 135 170Q115 170 115 196ZM197 22T181 5T141 -13T100 3T83 43T98 83T137 101T179 86T197 46Z" />
<glyph unicode="@" glyph-name="at" horiz-adv-x="856" d="M71 230T177 330T427 430T572 321Q572 287 559 208T545 107Q545 57 576 57Q587 57 598 67T613 78Q622 78 622 68Q620 42 593 18T536 -6Q473 -6 473 76Q473 84 475 100H472Q451 51 405 19T312 -13Q221
-13 221 54Q221 114 292 166T484 253Q487 272 487 297Q487 384 414 384Q344 384 279 350T169 248T125 96Q125 -8 201 -67T383 -126Q553 -126 652 -23T751 219Q751 349 660 446Q615 493 542 521T378 549Q287 549 221 524Q200 516 197 516Q185 516 185 530T205 551Q302
588 404 588T585 559T712 481Q808 381 808 241Q808 165 778 93T694 -38T553 -133T362 -169Q234 -169 153 -103T71 87Q71 230 177 330ZM392 192T354 158T316 83T356 42T433 91T481 224Q392 192 354 158Z" />
<glyph unicode="A" glyph-name="A" horiz-adv-x="655" d="M533 1L406 -2Q397 -2 397 15T406 32H463Q484 32 484 49Q484 56 446 168T399 309H218Q147 83 147 48Q147 33 153 33H225Q236 33 236 17T223 0L94 1L-17 -2Q-26 -2 -26 15T-17 32H33Q55 32 66 54Q108 145
172 325T260 563T284 628T280 643T276 653Q276 661 290 661T317 668T334 684Q345 706 354 706Q358 706 368 676L569 133Q607 33 622 33H658Q668 33 668 17T660 0L533 1ZM309 569Q278 489 231 349H385Q318 552 313 569H309Z" />
<glyph unicode="B" glyph-name="B" horiz-adv-x="664" d="M59 673L190 671H305Q433 671 497 622T561 500Q561 447 520 406T417 352V348Q507 332 559 284T611 175Q611 102 534 51T326 0H229L59 -2Q51 -2 51 15T59 32H102Q127 32 135 41T143 78V551Q143 639 122
639H59Q51 639 51 656T59 673ZM246 128Q246 40 268 40H319Q402 40 446 77T490 175Q490 241 444 280Q392 325 246 331V128ZM246 585V371Q270 367 299 367Q372 367 412 403T453 495T409 590T275 631Q246 631 246 585Z" />
<glyph unicode="C" glyph-name="C" horiz-adv-x="727" d="M644 139Q646 150 661 150T677 141L669 2Q669 -6 654 -6T638 2V26Q540 -13 446 -13Q274 -13 160 73T46 313Q46 428 106 514T258 642T446 684T619 645V668Q619 677 633 677T648 668Q648 587 658 520Q660
510 643 510T625 520L617 567Q539 639 431 639T246 560T170 335T250 111T452 32Q550 32 638 92L644 139Z" />
<glyph unicode="D" glyph-name="D" horiz-adv-x="761" d="M60 673L192 671H328Q514 671 624 579T735 334T625 91T347 0H230L60 -2Q52 -2 52 15T60 32H103Q128 32 136 41T144 78V554Q144 639 123 639H60Q51 639 51 656T60 673ZM282 631Q247 631 247 590V128Q247
40 268 40L350 41Q474 43 547 115T621 319T540 535T285 631Q283 631 282 631Z" />
<glyph unicode="E" glyph-name="E" horiz-adv-x="614" d="M64 673L190 671H480V692Q480 701 494 701T509 692Q509 592 519 540Q521 532 505 532T487 540Q471 603 449 613Q396 633 279 634Q259 633 253 623T246 588V352Q308 353 367 358T431 366L441 425Q442 432
453 432Q474 432 472 423Q467 384 467 335T472 247Q474 239 458 239T441 245L430 305Q424 308 367 313T246 320V128Q246 40 267 40H318Q473 42 530 82L537 137Q539 145 554 145T570 139L561 -22Q561 -29 546 -29T530 -22V0H283L59 -2Q51 -2 51 15T59 32H102Q127
32 135 41T143 78V552Q143 640 122 640H64Q56 640 56 656T64 673Z" />
<glyph unicode="F" glyph-name="F" horiz-adv-x="551" d="M525 538Q525 532 510 532T493 540Q477 603 455 613Q402 633 279 634Q260 632 253 623T246 588V348Q309 349 370 354T437 362L447 421Q448 428 459 428Q480 428 478 419Q473 380 473 331T478 243Q480 235
464 235T447 241L436 301Q430 304 370 309T246 316V128Q246 40 267 40H325Q333 40 333 20T325 0L199 1L59 -2Q51 -2 51 15T59 32H102Q127 32 135 41T143 78V552Q143 640 122 640H64Q56 640 56 656T64 673L190 671H486V692Q486 701 500 701T515 692L525 538Z" />
<glyph unicode="G" glyph-name="G" horiz-adv-x="767" d="M618 286L758 289Q766 289 766 272T758 255H727Q702 255 694 246T686 188T688 89T693 19T698 -15T701 -35Q701 -47 685 -47Q679 -47 666 -10T638 27Q546 -13 445 -13Q272 -13 159 73T46 312Q46 428 105
514T257 641T457 683Q504 683 537 675T619 647V668Q619 677 633 677T648 668Q648 577 657 517Q658 513 653 510T637 507T625 516L618 560Q531 639 435 639Q322 639 246 559T170 335T250 112T451 32Q530 32 571 74V166Q571 254 550 254H444Q436 254 436 270T444
287L618 286Z" />
<glyph unicode="H" glyph-name="H" horiz-adv-x="845" d="M650 672L790 675Q798 675 798 658T790 641H747Q722 641 714 632T706 595V121Q706 33 727 33H785Q793 33 793 17T785 0L659 1L519 -2Q511 -2 511 15T519 32H562Q587 32 595 41T603 78V314H246V121Q246
33 267 33H325Q333 33 333 17T325 0L199 1L59 -2Q51 -2 51 15T59 32H102Q127 32 135 41T143 78V552Q143 640 122 640H64Q56 640 56 656T64 673L190 672L330 675Q338 675 338 658T330 641H287Q262 641 254 632T246 595V355H603V552Q603 640 582 640H524Q516 640
516 656T524 673L650 672Z" />
<glyph unicode="I" glyph-name="I" horiz-adv-x="384" d="M190 672L330 675Q338 675 338 658T330 641H287Q262 641 254 632T246 595V121Q246 33 267 33H325Q333 33 333 17T325 0L199 1L59 -2Q51 -2 51 15T59 32H102Q127 32 135 41T143 78V552Q143 640 122 640H64Q56
640 56 656T64 673L190 672Z" />
<glyph unicode="J" glyph-name="J" horiz-adv-x="366" d="M199 672L339 675Q347 675 347 658T339 641H296Q271 641 263 632T255 595V132Q255 -32 228 -101Q196 -177 132 -225T-13 -273Q-39 -273 -52 -262T-66 -237Q-66 -199 -22 -182Q20 -208 74 -208Q106 -208
122 -177Q152 -115 152 123V552Q152 640 131 640H73Q65 640 65 656T73 673L199 672Z" />
<glyph unicode="K" glyph-name="K" horiz-adv-x="712" d="M190 672L330 675Q338 675 338 658T330 641H287Q262 641 254 632T246 595V364H279Q514 590 514 624Q514 641 498 641H470Q463 641 463 657T470 673L578 671L687 673Q695 673 695 657T686 640H650Q638 640
547 552T357 383V379L580 153Q692 40 712 40H750Q763 34 763 17T752 0Q752 0 656 1L498 -2Q489 -2 489 15T498 32H514Q539 32 539 47Q539 57 528 68Q337 272 284 327H246V121Q246 33 267 33H325Q333 33 333 17T325 0L199 1L59 -2Q51 -2 51 15T59 32H102Q127 32
135 41T143 78V552Q143 640 122 640H64Q56 640 56 656T64 673L190 672Z" />
<glyph unicode="L" glyph-name="L" horiz-adv-x="577" d="M190 672L330 675Q338 675 338 658T330 641H287Q262 641 254 632T246 595V40H304Q463 40 524 82L531 137Q533 145 548 145T564 139L555 -22Q555 -29 540 -29T524 -22V0H199L59 -2Q51 -2 51 15T59 32H102Q127
32 135 41T143 78V552Q143 640 122 640H64Q56 640 56 656T64 673Q64 673 190 672Z" />
<glyph unicode="M" glyph-name="M" horiz-adv-x="963" d="M798 1L667 -2Q659 -2 659 15T667 32H705Q724 32 732 40T739 65T730 190Q706 488 706 531H702Q685 493 591 278T474 14Q469 6 456 6T439 14Q414 53 338 241T223 540H219Q194 188 194 111T219 33H263Q276
33 276 17T263 0L158 1L32 -2Q23 -2 23 15T32 32H65Q92 32 102 36T116 59Q126 117 147 314Q169 523 169 563T164 622T143 641H93Q85 641 85 657T93 673L282 671Q295 627 373 413T477 126H481Q509 196 561 323Q662 571 694 671L862 674Q871 674 871 658T862 641H824Q805
641 799 631T793 608T793 582T812 380T843 91Q849 33 866 33H929Q940 33 940 17T929 0L798 1Z" />
<glyph unicode="N" glyph-name="N" horiz-adv-x="820" d="M664 671L782 674Q791 674 791 658T782 641H735Q715 641 709 632Q686 598 684 -12Q682 -19 668 -19T647 -12Q355 335 187 539H183Q187 175 189 104T210 33H265Q274 33 274 17T265 0L159 1L40 -2Q33 -2
33 15T40 32H73Q96 32 106 37T117 59Q137 284 137 597L130 605Q110 628 95 634T37 641Q31 641 31 657T37 673L218 671Q574 225 632 147H636Q630 544 626 592T603 640H555Q546 640 546 656T555 673L664 671Z" />
<glyph unicode="O" glyph-name="O" horiz-adv-x="824" d="M262 684T412 684T669 582T776 336T669 89T412 -13T155 89T48 335T155 582ZM517 638T412 638T241 551T174 336T240 120T412 33T583 120T650 335T584 551Z" />
<glyph unicode="P" glyph-name="P" horiz-adv-x="597" d="M64 673L190 671H305Q437 671 503 620T570 496T509 365T353 307Q301 307 246 331V121Q246 33 267 33H325Q335 33 335 17T325 0H282L239 1H199L59 -2Q51 -2 51 15T59 32H102Q127 32 135 41T143 78V552Q143
640 122 640H64Q56 640 56 656T64 673ZM376 357T419 395T462 489T416 588T282 631Q263 631 255 621T246 585V363Q273 357 299 357Q376 357 419 395Z" />
<glyph unicode="Q" glyph-name="Q" horiz-adv-x="824" d="M1063 -89Q1070 -82 1078 -88T1087 -98T1075 -120T1053 -152T1017 -195Q967 -251 908 -251T798 -228T702 -172T612 -104Q503 -20 412 -13Q262 -13 155 89T48 335T155 582T412 684T669 582T776 336Q776
218 704 127T518 2Q597 2 688 -52Q726 -75 764 -98Q858 -152 939 -152Q976 -152 1003 -138T1063 -89ZM517 638T412 638T241 551T174 336T240 120T412 33T583 120T650 335T584 551Z" />
<glyph unicode="R" glyph-name="R" horiz-adv-x="638" d="M64 673L190 671H305Q437 671 503 621T570 502T521 390T396 329Q314 320 296 320T246 326V121Q246 33 267 33H325Q333 33 333 17T325 0L199 1L59 -2Q51 -2 51 15T59 32H102Q127 32 135 41T143 78V552Q143
640 122 640H64Q56 640 56 656T64 673ZM376 357T419 395T462 489T416 588T285 631Q246 631 246 590V363Q273 357 299 357Q376 357 419 395ZM666 70Q672 75 678 70T684 62T683 57Q634 -13 574 -13Q532 -13 497 16T438 89T390 179Q333 296 281 321L345 333Q391 325
425 292T481 219T521 138Q566 44 619 44Q638 44 666 70Z" />
<glyph unicode="S" glyph-name="S" horiz-adv-x="538" d="M490 90T419 39T262 -13T110 17L118 -3Q121 -9 114 -14T97 -20T85 -15Q53 66 46 173Q46 183 62 183T79 176Q101 100 168 54Q209 25 263 25T351 56T385 132T362 212T305 270T231 316T157 363T100 424T77
510Q77 583 142 633T307 684Q352 684 391 672L403 669Q399 685 399 691T402 699T416 702T429 694Q452 613 456 535Q453 529 440 529T423 532Q412 573 392 599T348 636T292 646Q230 646 204 615T177 546T194 482T239 436T300 398T366 358T428 312Q490 257 490 174Z"
/>
<glyph unicode="T" glyph-name="T" horiz-adv-x="603" d="M628 539Q628 531 612 531T595 540Q583 605 554 614Q503 627 387 629Q367 628 360 618T353 583V121Q353 33 374 33H432Q440 33 440 17T432 0L306 1L166 -2Q158 -2 158 15T166 32H209Q234 32 242 41T250
78V541Q250 629 230 629H209Q110 629 49 614Q20 605 8 540Q7 531 -9 531T-25 539L-17 692Q-17 701 -1 701T15 692V673Q83 671 140 671H439Q520 671 588 673V692Q588 701 604 701T620 692L628 539Z" />
<glyph unicode="U" glyph-name="U" horiz-adv-x="782" d="M631 672L739 675Q747 675 747 658T739 641H709Q684 641 677 632T667 595Q658 460 658 255Q658 129 580 58T395 -13T210 53T132 241V552Q132 640 111 640H53Q45 640 45 656T53 673L179 672L319 675Q327
675 327 658T319 641H276Q251 641 243 632T235 595V269Q235 163 287 110T422 56T552 115T601 290Q601 449 597 544T574 640H518Q510 640 510 656T518 673L631 672Z" />
<glyph unicode="V" glyph-name="V" horiz-adv-x="631" d="M551 671L663 673Q671 673 671 658T663 642H615Q593 642 579 609Q539 515 449 285T328 -12Q324 -21 306 -21T284 -12Q194 198 46 613Q37 641 17 641H-19Q-25 641 -25 657T-19 673L91 671L242 673Q252 673
252 658T242 642H184Q153 642 165 599T205 468T274 258T327 100H331Q498 563 498 620Q498 641 489 641H423Q415 641 415 657T423 673L551 671Z" />
<glyph unicode="W" glyph-name="W" horiz-adv-x="1015" d="M928 671L1040 673Q1048 673 1048 658T1040 642H992Q970 642 956 609Q917 516 826 286T704 -12Q700 -21 683 -21T662 -12Q612 104 497 422Q474 364 436 263Q356 49 328 -12Q324 -21 306 -21T284 -12Q194
198 46 613Q37 641 17 641H-19Q-25 641 -25 657T-19 673L91 671L242 673Q252 673 252 658T242 642H184Q153 642 165 599T205 468T274 258T327 100H331Q424 357 468 500Q453 540 428 613Q419 641 399 641H363Q357 641 357 657T363 673L473 671Q473 671 624 673Q634
673 634 658T624 642H566Q535 642 547 601Q567 523 705 100H709Q875 560 875 620Q875 641 866 641H800Q792 641 792 657T800 673L928 671Z" />
<glyph unicode="X" glyph-name="X" horiz-adv-x="730" d="M747 0L609 1L477 -2Q469 -2 469 15T477 32H511Q530 32 530 44Q530 53 508 85T350 288Q180 98 167 37Q165 30 169 30H219Q227 30 227 15T219 0L85 1L-24 -2Q-34 -2 -34 14T-24 31H13Q34 31 57 52Q131 121
318 328Q137 556 105 591Q82 619 63 630T13 641H-1Q-7 641 -7 657T-1 673L125 671L264 673Q270 673 270 658T264 642H216Q206 642 206 631T381 395Q502 535 529 576T557 629T552 641H515Q507 641 507 657T515 673L631 671L754 673Q763 673 763 658T754 642H707Q693
642 660 614Q591 556 412 357Q432 332 535 208Q662 58 677 46T698 33H747Q758 33 758 17T747 0Z" />
<glyph unicode="Y" glyph-name="Y" horiz-adv-x="606" d="M310 1L172 -2Q164 -2 164 15T172 32H215Q240 32 248 41T256 78V302Q257 343 55 577Q22 616 4 628T-29 641H-61Q-68 641 -68 657T-61 673L63 671L204 673Q213 673 213 657T204 640H134Q134 636 170 593Q286
457 324 379H327Q348 415 416 500T493 603T502 629Q502 641 491 641H452Q443 641 443 657T452 673L570 671L681 673Q691 673 691 657T681 640H656Q631 640 613 624Q540 563 448 459T355 321V105Q355 33 376 33H434Q442 33 442 17T434 0L310 1Z" />
<glyph unicode="Z" glyph-name="Z" horiz-adv-x="649" d="M39 0Q31 0 31 12T42 31Q63 44 343 487L436 634H185Q168 634 148 618Q111 586 93 511Q92 502 80 502Q56 502 58 511Q68 599 80 682Q82 697 103 697T125 683Q125 675 127 673T135 671H571Q581 671 581 660Q581
653 572 647Q561 643 464 491T274 190L182 40H461Q525 40 569 195Q572 206 583 206Q602 206 602 197L579 0Q578 -11 575 -15T557 -19T543 -13Q543 -3 474 -2T39 0Z" />
<glyph unicode="[" glyph-name="bracketleft" horiz-adv-x="440" d="M450 -397H82V886H450Q461 886 461 863T450 840H156V-352H450Q461 -352 461 -374T450 -397Z" />
<glyph unicode="\" glyph-name="backslash" horiz-adv-x="260" d="M-144 749Q-130 766 -116 766T-90 746L376 -120Q359 -137 346 -137T320 -113L-144 749Z" />
<glyph unicode="]" glyph-name="bracketright" horiz-adv-x="440" d="M390 -397H22Q11 -397 11 -375T22 -352H316V840H22Q11 840 11 863T22 886H390V-397Z" />
<glyph unicode="^" glyph-name="asciicircum" horiz-adv-x="520" d="M54 251Q46 251 35 254Q192 558 222 622T261 688Q272 688 309 610L465 296Q474 280 474 269Q474 253 431 251L260 589H258L103 284Q82 251 54 251Z" />
<glyph unicode="_" glyph-name="underscore" horiz-adv-x="500" d="M456 -76Q483 -76 493 -85T503 -106T503 -122H35Q18 -122 9 -112T-1 -92L-2 -81L456 -76Z" />
<glyph unicode="`" glyph-name="grave" horiz-adv-x="360" d="M88 704Q88 718 98 727T129 736T165 722T215 654T275 573T301 542Q301 533 292 533T278 536Q156 620 122 649T88 704Z" />
<glyph unicode="a" glyph-name="a" horiz-adv-x="471" d="M375 324Q375 324 365 123Q365 56 409 56Q427 56 439 66T454 77Q464 77 464 67Q464 41 435 15T369 -11T315 18T296 91Q296 95 296 100H293Q275 51 232 19T142 -13T70 6T45 62Q45 119 110 169T291 253Q293
287 293 293Q293 347 273 382T211 417T145 394T119 326Q119 312 120 304Q113 294 93 294T58 306T43 341Q43 386 100 418T220 450Q375 450 375 324ZM182 42Q223 42 255 91T291 224Q206 193 172 160T138 89Q138 42 182 42Z" />
<glyph unicode="b" glyph-name="b" horiz-adv-x="573" d="M175 735L174 376H176Q236 450 333 450T482 391T534 232T466 60T302 -13Q266 -13 238 -4T195 15T169 35T148 44H146Q132 44 114 -1T90 -47Q74 -47 74 -35Q74 -32 78 -10Q89 50 89 291V584Q89 681 64 681H19Q11
681 11 696T17 711Q59 711 83 718T118 729T142 739T160 747Q175 747 175 735ZM299 23Q367 23 400 81T434 214T393 338T282 389Q234 389 204 368Q190 357 183 351T174 343V164Q186 23 299 23Z" />
<glyph unicode="c" glyph-name="c" horiz-adv-x="457" d="M302 450Q349 450 380 431T411 384T373 339Q308 401 252 401T159 359T123 234T171 106T283 59Q350 59 398 91Q415 102 418 102Q430 102 430 90T408 55T343 9T252 -13Q154 -13 97 47T39 188Q39 297 118
373T302 450Z" />
<glyph unicode="d" glyph-name="d" horiz-adv-x="573" d="M485 735L484 376V146Q484 78 498 66Q506 60 519 60L553 63Q561 63 561 49T555 33Q488 22 444 -4Q430 -13 426 -13Q405 -13 401 62H399Q339 -13 233 -13Q143 -13 91 46T39 205T107 377T271 450Q342 450
399 406V584Q399 681 374 681H329Q321 681 321 696T327 711Q368 711 393 718T428 729T452 739T470 747Q485 747 485 735ZM274 414Q206 414 173 356T139 223T180 99T291 48Q339 48 368 70Q383 80 390 86T399 94V273Q387 414 274 414Z" />
<glyph unicode="e" glyph-name="e" horiz-adv-x="466" d="M273 72Q311 72 339 80T380 98L402 116Q412 124 417 124Q428 124 428 112Q428 90 389 44Q370 21 332 4T247 -13Q159 -13 99 53T39 205Q39 313 110 381T267 449Q332 449 376 403T421 280Q421 264 414 258T382
250T260 247T93 242Q93 157 148 115T273 72ZM336 345T308 370T236 395T149 363T96 273Q122 276 201 282T308 292T336 311Q336 345 308 370Z" />
<glyph unicode="f" glyph-name="f" horiz-adv-x="345" d="M156 1L40 -2Q33 -2 33 13T38 28H96Q108 28 108 45V399H38Q27 399 27 415T36 432Q99 432 106 453Q110 466 116 491T128 535T142 579T161 624T189 663T226 696Q273 724 342 724Q382 724 410 705T439 660Q439
625 389 609Q375 631 365 644T336 669T295 682T254 672T224 643T207 604T197 556Q193 517 193 466V437H306Q317 437 317 418T308 399H193V118Q193 30 214 30H263Q271 30 271 15T265 0L156 1Z" />
<glyph unicode="g" glyph-name="g" horiz-adv-x="510" d="M208 36L326 41Q398 41 445 13T493 -71Q493 -151 399 -215T198 -280Q34 -280 34 -181Q34 -140 72 -98T162 -38V-35Q57 -22 57 39Q57 64 81 93T153 134V136Q107 153 79 193T50 282Q50 358 104 404T233 450T362
392Q408 446 453 446Q478 446 492 433T507 397T479 358Q442 388 414 388Q404 388 394 382T384 372T394 341T405 284Q405 204 355 164T227 122Q191 122 165 112Q119 93 119 68Q119 36 208 36ZM303 -33L212 -38Q168 -54 138 -88T108 -162Q108 -245 221 -245Q288 -245
356 -203T425 -101Q425 -66 390 -50T303 -33ZM225 155Q320 155 320 284Q320 338 299 377T227 417Q135 417 135 284Q135 231 156 193T225 155Z" />
<glyph unicode="h" glyph-name="h" horiz-adv-x="606" d="M196 735L195 390H196Q226 417 265 433T337 450Q508 450 508 258V118Q508 30 529 30H578Q586 30 586 15T580 0Q580 0 471 1L355 -2Q348 -2 348 13T353 28H411Q423 28 423 45V214Q423 315 394 355T298 395T195
355V118Q195 30 216 30H265Q273 30 273 15T267 0L158 1L42 -2Q35 -2 35 13T40 28H98Q110 28 110 45V584Q110 681 85 681H40Q32 681 32 696T38 711Q80 711 104 718T139 729T163 739T181 747Q196 747 196 735Z" />
<glyph unicode="i" glyph-name="i" horiz-adv-x="298" d="M154 1L38 -2Q31 -2 31 13T36 28H94Q106 28 106 45V280Q106 377 78 377H58Q50 377 50 392T56 407Q102 407 156 460Q175 478 180 478Q195 478 195 466Q195 458 193 413T191 297V118Q191 30 212 30H261Q269
30 269 15T263 0L154 1ZM190 616T175 601T138 585T100 600T83 637T98 676T136 692T174 677T190 639Z" />
<glyph unicode="j" glyph-name="j" horiz-adv-x="299" d="M215 297V42Q215 -42 195 -102T152 -198T87 -257T0 -281T-68 -265T-91 -226Q-91 -193 -47 -178Q-10 -236 36 -236Q62 -236 81 -220T109 -182T123 -126Q130 -77 130 -15V280Q130 377 102 377H82Q74 377
74 392T80 407Q126 407 180 460Q199 478 204 478Q219 478 219 466Q219 458 217 413T215 297ZM215 616T200 601T163 585T125 600T108 637T124 676T162 692T199 677T215 639Z" />
<glyph unicode="k" glyph-name="k" horiz-adv-x="526" d="M195 735L194 355V205L330 337Q373 378 373 403Q373 412 365 412H317Q309 412 309 425T314 438Q314 438 415 436L489 438Q496 438 496 426T491 413H475Q461 413 446 400L290 254Q420 85 483 41Q498 30
519 30Q529 30 529 15T518 0Q504 1 469 1L421 0Q412 0 398 12Q369 36 234 202L194 164V118Q194 30 215 30H264Q272 30 272 15T266 0L157 1L41 -2Q34 -2 34 13T39 28H97Q109 28 109 45V584Q109 681 84 681H39Q31 681 31 696T37 711Q78 711 103 718T138 729T162 739T180
747Q195 747 195 735Z" />
<glyph unicode="l" glyph-name="l" horiz-adv-x="299" d="M195 735L194 355V118Q194 30 215 30H264Q272 30 272 15T266 0Q266 0 157 1L41 -2Q34 -2 34 13T39 28H97Q109 28 109 45V584Q109 681 84 681H39Q31 681 31 696T37 711Q78 711 103 718T138 729T162 739T180
747Q195 747 195 735Z" />
<glyph unicode="m" glyph-name="m" horiz-adv-x="902" d="M193 466L191 388H193Q223 416 263 433T336 450Q439 450 477 372H479Q561 450 641 450Q804 450 804 258V118Q804 30 825 30H874Q882 30 882 15T876 0Q876 0 767 1L651 -2Q644 -2 644 13T649 28H707Q719
28 719 45V214Q719 316 693 355T596 395Q567 395 537 381T488 343Q499 305 499 258V118Q499 30 520 30H569Q577 30 577 15T571 0L462 1L346 -2Q339 -2 339 13T344 28H402Q414 28 414 45V214Q414 316 388 355T296 395T194 355V118Q194 30 215 30H264Q272 30 272
15T266 0L157 1L41 -2Q34 -2 34 13T39 28H97Q109 28 109 45V280Q109 377 81 377H61Q53 377 53 392T59 407Q86 407 113 424T157 460T179 478Q193 478 193 466Z" />
<glyph unicode="n" glyph-name="n" horiz-adv-x="600" d="M193 466L191 388H193Q223 416 263 433T336 450Q502 450 502 258V118Q502 30 523 30H572Q580 30 580 15T574 0Q574 0 465 1L349 -2Q342 -2 342 13T347 28H405Q417 28 417 45V214Q417 316 390 355T296 395T194
355V118Q194 30 215 30H264Q272 30 272 15T266 0L157 1L41 -2Q34 -2 34 13T39 28H97Q109 28 109 45V280Q109 377 81 377H61Q53 377 53 392T59 407Q86 407 113 424T157 460T179 478Q193 478 193 466Z" />
<glyph unicode="o" glyph-name="o" horiz-adv-x="549" d="M34 318T107 384T274 450T442 383T515 218T445 54T275 -13T105 56T34 222ZM270 414Q202 414 168 355T134 218T169 81T276 23T381 80T415 201T402 309T355 383T270 414Z" />
<glyph unicode="p" glyph-name="p" horiz-adv-x="582" d="M180 466L177 370H179Q242 450 349 450Q439 450 491 391T543 232T475 60T311 -13Q277 -13 249 -5T210 11T182 31Q183 14 183 -70V-152Q183 -240 204 -240H253Q261 -240 261 -255T255 -270L146 -269L30
-272Q23 -272 23 -257T28 -242H86Q98 -242 98 -225V280Q98 377 70 377H50Q42 377 42 392T48 407Q75 407 101 424T145 460T166 478Q180 478 180 466ZM308 23Q376 23 409 81T443 214T402 338T291 389Q243 389 214 368Q199 357 192 351T183 343V164Q195 23 308 23Z"
/>
<glyph unicode="q" glyph-name="q" horiz-adv-x="568" d="M447 -269L331 -272Q324 -272 324 -257T329 -242H387Q399 -242 399 -225V61H397Q337 -13 240 -13T91 46T39 205T107 377T271 450Q307 450 335 441T378 422T404 402T425 393H427Q441 393 459 438T483 484Q499
484 499 472Q499 470 496 448Q484 374 484 146V-152Q484 -240 505 -240H554Q562 -240 562 -255T556 -270L447 -269ZM274 414Q206 414 173 356T139 223T180 99T291 48Q339 48 368 70Q383 80 390 86T399 94V273Q387 414 274 414Z" />
<glyph unicode="r" glyph-name="r" horiz-adv-x="391" d="M194 466L192 376H194Q217 401 257 425T328 450T372 438T385 409T373 374T340 348Q302 381 264 381T195 342V118Q195 30 216 30H265Q273 30 273 15T267 0L158 1L42 -2Q35 -2 35 13T40 28H98Q110 28 110
45V280Q110 377 82 377H62Q54 377 54 392T60 407Q87 407 114 424T158 460T180 478Q194 478 194 466Z" />
<glyph unicode="s" glyph-name="s" horiz-adv-x="382" d="M349 54T299 21T186 -13T92 4Q92 -8 90 -11Q88 -15 78 -15T67 -7Q64 17 56 68T47 125T52 135T65 138T73 132Q107 19 193 19Q226 19 249 37T273 87T252 142T201 182T141 215T90 259T69 324Q69 383 112 416T222
450Q257 450 287 440Q283 456 285 459T295 463T306 461T312 448T318 419T327 375T334 342T332 333T320 330T308 338Q278 418 213 418Q181 418 162 400T143 353T164 303T215 267T276 235T328 186T349 113Q349 54 299 21Z" />
<glyph unicode="t" glyph-name="t" horiz-adv-x="338" d="M90 120V399H39Q29 399 29 413T37 429Q82 438 110 473T158 565Q160 572 170 572T181 561T178 511T175 437H299Q309 437 309 418T301 399H175V142Q175 93 192 70T249 47Q283 47 304 76Q312 86 316 86Q326
86 326 77Q326 50 291 17T204 -16T121 19T90 120Z" />
<glyph unicode="u" glyph-name="u" horiz-adv-x="565" d="M92 436L176 439Q186 439 186 431Q186 426 183 414Q178 396 178 332V223Q178 121 202 82T294 42Q324 42 350 58T391 103V319Q391 407 370 407H321Q313 408 313 422T319 437L390 436L474 439Q484 439 484
431Q484 426 481 414Q476 396 476 332V146Q476 78 490 66Q498 60 511 60L545 63Q553 63 553 49T547 33Q480 22 436 -4Q422 -13 418 -13Q394 -13 394 60H392Q365 24 325 6T249 -13Q93 -13 93 179V319Q93 407 72 407H23Q15 408 15 422T21 437L92 436Z" />
<glyph unicode="v" glyph-name="v" horiz-adv-x="461" d="M386 436L459 438Q466 438 466 425T459 412H433Q422 412 417 403Q389 357 330 201T253 -14Q249 -23 234 -23T214 -13Q191 80 51 373Q39 397 29 404T-2 411Q-8 411 -8 424T-2 438L93 436Q93 436 201 438Q207
438 207 425T201 412H153Q142 412 142 403Q142 398 162 346Q233 160 256 94Q274 156 299 227T336 336T349 392T337 411H296Q288 411 288 424T294 438L386 436Z" />
<glyph unicode="w" glyph-name="w" horiz-adv-x="703" d="M629 436L702 438Q709 438 709 425T702 412H676Q665 412 660 403Q632 357 573 201T496 -14Q492 -23 477 -23T457 -13Q437 64 354 261Q278 71 253 -14Q249 -23 234 -23T214 -13Q191 80 51 373Q39 397 29
404T-2 411Q-8 411 -8 424T-2 438L93 436L186 438Q192 438 192 425T186 412H153Q142 412 142 403Q142 398 162 346Q233 160 256 94Q271 146 330 315Q297 393 285 402T251 411Q245 411 245 424T251 438L346 436L454 438Q460 438 460 425T454 412H406Q395 412 395
403Q395 395 440 265T499 94Q517 156 542 227T579 336T592 392T580 411H539Q532 411 532 424T537 438L629 436Z" />
<glyph unicode="x" glyph-name="x" horiz-adv-x="550" d="M438 436L516 438Q523 438 523 425T516 412H476Q467 412 460 405T313 242Q442 77 464 54T495 30H528Q536 30 536 15T528 0L421 1L293 -1Q287 -1 287 13T293 28H344Q356 28 356 37Q356 59 296 136Q267 173
260 182Q183 91 175 81T158 56Q145 36 148 30H198Q205 30 205 15T198 0L107 1L20 -1Q14 -1 14 13T20 28H52Q67 28 77 38Q137 101 236 211Q151 318 96 385Q73 411 52 411H32Q26 411 26 424T32 438L140 436L260 438Q266 438 266 425T260 412H200Q192 412 192 403T290
272Q362 354 374 375T386 404T381 411H343Q338 411 338 424T343 438L438 436Z" />
<glyph unicode="y" glyph-name="y" horiz-adv-x="470" d="M393 436L466 438Q473 438 473 425T466 412H441Q429 412 422 398Q376 310 315 139T242 -63Q146 -311 18 -311Q-28 -311 -44 -286Q-48 -278 -48 -263T-25 -221Q4 -241 40 -241T118 -195T184 -96T208 -17T198
45T168 131T133 214T92 305T57 379T38 404T5 411Q-1 411 -1 424T5 438L100 436L208 438Q214 438 214 425T208 412H163Q150 412 150 405T165 357T210 239T263 94Q280 152 305 223T344 335T357 393T344 411H297Q292 411 292 424T297 438L393 436Z" />
<glyph unicode="z" glyph-name="z" horiz-adv-x="454" d="M401 -13Q401 -20 388 -20T374 -15T367 -7T324 -2Q264 0 41 0Q35 0 35 9T41 23Q52 28 114 124T234 314L291 407H149Q107 407 80 329Q78 324 65 324T51 329Q57 377 81 449Q83 456 97 456T112 447T116 437H400Q407
437 407 427T401 414T339 325T224 144T150 31H321Q361 31 378 68Q386 88 391 119Q392 126 406 126T421 119Q414 100 408 55T401 -13Z" />
<glyph unicode="{" glyph-name="braceleft" horiz-adv-x="336" d="M226 637L234 428Q234 361 202 317T101 270V265Q170 262 202 218T234 107L226 -148Q226 -190 228 -214T241 -269T273 -316Q324 -355 431 -355Q456 -355 456 -381T446 -407Q296 -407 227 -333T157
-146L163 88Q163 163 138 202T42 242L13 240Q-1 240 -1 264Q-1 275 3 285T13 295Q29 293 42 293Q113 293 138 332T163 447L157 635Q157 747 226 821T446 896Q456 896 456 870T431 844Q324 844 273 805Q252 789 241 758T228 703T226 637Z" />
<glyph unicode="|" glyph-name="bar" horiz-adv-x="204" d="M96 -151Q89 -151 80 -147V721Q80 753 107 753L123 749L120 -121Q120 -151 96 -151Z" />
<glyph unicode="}" glyph-name="braceright" horiz-adv-x="336" d="M110 -148L102 107Q102 174 134 218T235 265V270Q166 273 134 317T102 428L110 637Q110 679 108 703T95 758T63 805Q12 844 -95 844Q-120 844 -120 870T-110 896Q40 896 109 822T179 635L173
447Q173 372 198 333T294 293L323 295Q329 295 333 285T337 264Q337 240 323 240Q307 242 294 242Q223 242 198 203T173 88L179 -146Q179 -258 110 -332T-110 -407Q-120 -407 -120 -381T-95 -355Q12 -355 63 -316Q84 -300 95 -269T108 -214T110 -148Z" />
<glyph unicode="~" glyph-name="asciitilde" horiz-adv-x="458" d="M176 310L269 302Q311 302 340 322T378 386Q379 394 389 394Q404 394 404 378Q404 320 370 281T274 241Q256 241 222 247T173 253Q132 253 102 231T63 166Q61 158 54 158T41 163T36 177Q38 237
76 273T176 310Z" />
</font>
</defs>
</svg>
