<?xml version="1.0" standalone="no"?> <!DOCTYPE svg PUBLIC "-//W3C//DTD SVG 1.0//EN" "http://www.w3.org/TR/2001/REC-SVG-20010904/DTD/svg10.dtd" > <svg xmlns="http://www.w3.org/2000/svg" width="100%" height="100%">
<defs >
<font id="Sedan-Italic" horiz-adv-x="477" ><font-face
    font-family="Sedan"
    units-per-em="1000"
    panose-1="2 0 5 3 0 0 0 2 0 4"
    ascent="978"
    descent="-407"
    alphabetic="0" />
<missing-glyph horiz-adv-x="260" />
<glyph unicode=" " glyph-name="space" horiz-adv-x="260" />
<glyph unicode="!" glyph-name="exclam" horiz-adv-x="310" d="M140 169Q122 169 122 191Q122 197 148 336T174 542T164 656Q214 684 242 684Q281 684 281 631T257 508T203 349T161 178Q150 169 140 169ZM50 18T50 43T66 85T108 102T150 85T167 43T150 2T108 -15T67 1Z" />
<glyph unicode="&quot;" glyph-name="quotedbl" horiz-adv-x="318" d="M217 521L216 590Q216 682 272 682Q287 682 296 672T306 643T273 549T233 442Q228 438 221 438T209 442Q217 472 217 521ZM70 521L69 590Q69 682 125 682Q140 682 149 672T159 643T126 549T86
442Q81 438 74 438T62 442Q70 472 70 521Z" />
<glyph unicode="#" glyph-name="numbersign" horiz-adv-x="533" d="M521 231H350L274 28Q265 -2 219 -2L302 231H172L96 28Q87 -2 41 -2L124 231H39Q25 231 20 240T15 275L141 278L190 415L101 418Q85 419 79 428T73 462L205 460L274 652Q280 668 297 677T328
687L343 688L257 459L383 458L452 652Q458 668 475 677T506 687L521 688L434 457L515 456Q548 456 548 402L415 406L370 284L488 287Q521 284 521 231ZM240 413L190 279L321 283L365 408L240 413Z" />
<glyph unicode="$" glyph-name="dollar" horiz-adv-x="502" d="M34 34Q20 34 20 46Q20 56 37 90T60 139T70 165T76 181T82 194Q90 208 99 208T116 204Q105 169 101 152Q127 104 175 82L246 329Q212 364 193 387T157 449T139 526Q139 619 204 673T359 728L385 818Q387
826 405 826T424 816V814L398 725Q435 721 471 702L480 724Q481 730 486 730Q494 730 505 719Q479 643 479 584V569Q479 562 465 562T451 578T446 614Q421 655 383 670L314 431Q344 402 360 385T399 338Q441 282 441 213Q441 121 377 73T222 24Q206 24 199 25L173
-66Q171 -73 153 -73T134 -63L161 31Q107 44 65 81Q52 57 48 40Q44 34 34 34ZM346 174Q346 204 329 231T276 297L212 70Q218 69 230 69Q277 69 311 97T346 174ZM299 676T262 646T224 568T283 461L345 677Q299 676 262 646Z" />
<glyph unicode="%" glyph-name="percent" horiz-adv-x="762" d="M122 -9Q102 -33 90 -33T64 -16L699 682Q717 701 726 701Q742 701 755 684L122 -9ZM710 180Q710 107 656 50T523 -8Q465 -8 430 32T394 128Q394 205 447 263T582 321Q638 321 674 278T710 180ZM431
100T462 80T542 60T632 89T673 174Q673 210 644 232T567 255T475 223T431 135Q431 100 462 80ZM417 533Q417 460 363 403T230 345Q172 345 137 385T101 481Q101 558 154 616T289 674Q345 674 381 631T417 533ZM138 453T169 433T249 413T339 442T380 527Q380 563
351 585T274 608T182 576T138 488Q138 453 169 433Z" />
<glyph unicode="&amp;" glyph-name="ampersand" horiz-adv-x="809" d="M139 454Q139 534 204 602T350 671Q393 671 416 647T440 583T418 508T370 454Q514 454 626 494Q682 514 714 550T747 637Q747 660 741 677Q753 682 771 682T807 666T825 614T803 546T744 492Q679
457 598 442Q589 349 550 260T443 110Q601 -21 690 -21Q719 -21 740 -9T773 14T788 26Q800 26 800 14T749 -40T649 -81T520 -45T370 53Q271 -13 174 -13Q36 -13 36 117Q36 176 76 231T173 320Q139 397 139 454ZM365 542Q365 566 346 583T289 600T228 568T205 495T233
389T312 252T414 136Q512 227 512 381Q512 405 509 429Q445 421 409 421T321 423Q365 482 365 542ZM120 161Q120 113 150 81T233 48T341 82Q248 175 188 288Q120 232 120 161Z" />
<glyph unicode="&apos;" glyph-name="quotesingle" horiz-adv-x="300" d="M291 552Q291 578 248 578Q242 578 236 578Q219 588 219 611Q219 644 241 663T293 682T338 656Q347 638 347 623T345 596Q331 531 289 491T175 416L168 435Q214 456 250 487Q291 523 291 552Z" />
<glyph unicode="(" glyph-name="parenleft" horiz-adv-x="542" d="M391 -364Q400 -364 400 -375T396 -396T382 -407Q249 -407 156 -276T63 65Q63 218 115 371T250 638T442 824T660 896Q669 896 669 885T664 864T650 853Q557 853 462 778T297 588T183 334T139 70Q139
-116 210 -240T391 -364Z" />
<glyph unicode=")" glyph-name="parenright" d="M368 440Q368 617 296 735T109 853Q100 853 100 866Q100 896 117 896Q252 896 348 774T444 449Q444 326 407 198T306 -37T166 -227T4 -359T-158 -407Q-166 -407 -166 -395Q-166 -365 -149 -364Q-65 -364 28 -288T196
-96T319 165T368 440Z" />
<glyph unicode="*" glyph-name="asterisk" horiz-adv-x="439" d="M130 653T140 662T158 671T169 668L277 576L307 738Q308 744 317 748T335 753Q350 753 350 737Q350 731 346 714Q320 620 309 575L463 659Q469 662 473 662Q489 662 489 645Q489 632 474 625L318
553L445 484Q454 478 454 468T444 449T425 439T410 442L298 529L270 364Q266 349 246 349T226 363L267 526L112 438Q108 436 102 436Q84 436 84 454T98 477L259 551L133 625Q126 630 128 641Z" />
<glyph unicode="+" glyph-name="plus" horiz-adv-x="472" d="M307 505Q311 505 316 505L268 278L425 281Q465 281 465 251Q465 243 462 233H258L215 29Q209 2 181 2Q177 2 174 2L163 5Q190 140 209 233H44Q27 233 20 243T15 265L16 276Q56 276 218 278L254 458Q263
505 307 505Z" />
<glyph unicode="," glyph-name="comma" horiz-adv-x="260" d="M159 -37Q159 -1 111 -1Q105 -1 98 -2Q72 11 72 40T88 85T133 102T183 76T203 16Q203 -49 169 -89T71 -164L60 -145Q102 -124 130 -93T159 -37Z" />
<glyph unicode="-" glyph-name="hyphen" horiz-adv-x="250" d="M6 227Q10 227 37 227T129 240T211 254Q240 254 240 230Q240 226 238 214Q198 212 132 197T46 181T18 192T8 216L6 227Z" />
<glyph unicode="." glyph-name="period" horiz-adv-x="260" d="M187 22T171 5T131 -13T90 3T73 43T88 83T127 101T169 86T187 46Z" />
<glyph unicode="/" glyph-name="slash" horiz-adv-x="580" d="M74 -113Q57 -137 44 -137T17 -120L667 746Q682 766 692 766Q711 766 722 749L74 -113Z" />
<glyph unicode="0" glyph-name="zero" horiz-adv-x="550" d="M336 451Q413 451 463 404T514 281Q514 171 424 79T220 -13Q144 -13 94 36T44 163Q44 273 132 362T336 451ZM322 396Q235 396 173 327T111 167Q111 108 145 76T234 43Q321 43 385 113T450 274Q450 331
414 363T322 396Z" />
<glyph unicode="1" glyph-name="one" horiz-adv-x="378" d="M226 438L354 441Q358 441 358 426T349 411H279Q267 411 263 394L194 118Q182 67 182 49T193 30H254Q259 30 259 15T249 0L128 1L-1 -2Q-5 -2 -5 13T4 28H74Q86 28 91 45L161 325Q172 369 172 389T160
409H99Q95 409 95 423T105 439Q181 438 226 438Z" />
<glyph unicode="2" glyph-name="two" horiz-adv-x="395" d="M302 330Q302 365 283 386T229 408T174 388T154 338T163 282Q138 266 116 266T81 280T68 316Q68 364 125 407T249 450T356 420T397 347T372 264T295 185Q211 121 90 55L92 50Q168 67 246 67Q370 67 370
15Q370 -27 305 -63L301 -62Q301 -24 272 -9T163 6T-18 0Q-25 0 -25 8T-14 22Q137 119 219 195T302 330Z" />
<glyph unicode="3" glyph-name="three" horiz-adv-x="521" d="M152 -243Q230 -243 282 -182T334 -43Q334 58 248 101Q179 68 153 68T127 84Q127 104 160 118T235 133Q281 162 318 212T355 309T337 383T280 410T209 386T176 325Q176 306 186 287Q171 262 145 262Q90
262 90 305Q90 358 157 404T295 450T409 419T452 331T404 218T289 123Q361 102 395 62T430 -29Q430 -120 339 -199T128 -279Q57 -279 11 -251T-36 -184Q-36 -165 -21 -151T15 -137T55 -147Q55 -243 152 -243Z" />
<glyph unicode="4" glyph-name="four" horiz-adv-x="525" d="M-12 5Q-20 5 -20 18T0 51L427 472Q460 472 460 455Q460 451 451 425Q423 344 384 190L350 53H448Q456 53 456 42T451 18T436 5H338Q315 -91 306 -124Q289 -185 289 -213T307 -241H369Q381 -241 381
-255T358 -270Q270 -269 235 -269L84 -270Q75 -270 75 -257Q75 -241 92 -241H170Q187 -241 191 -225T212 -138T243 -16L248 5H-12ZM327 327L54 51H259L311 257L330 327H327Z" />
<glyph unicode="5" glyph-name="five" horiz-adv-x="525" d="M440 29Q440 -89 343 -186T99 -284Q31 -284 -9 -260T-50 -198Q-50 -175 -35 -159T11 -142Q20 -193 53 -217T136 -242Q235 -242 299 -174T363 -22T311 117T147 173Q141 173 133 168T116 163T108 170L191
431L423 450Q479 454 507 490Q513 497 521 497T529 489T517 456T472 403T398 369L204 352L171 253Q305 247 372 184T440 29Z" />
<glyph unicode="6" glyph-name="six" horiz-adv-x="501" d="M539 693Q551 693 551 681Q551 675 545 673Q371 605 253 490Q191 430 156 349T120 188T148 66T219 24Q281 24 317 82T354 211Q354 250 334 279T273 308Q256 308 236 301T214 294Q203 294 203 305Q203
322 238 337T309 352Q373 352 415 306T458 202Q458 114 379 51T207 -13Q132 -13 75 46T18 194T62 368T179 518T345 629T536 693Q537 693 539 693Z" />
<glyph unicode="7" glyph-name="seven" horiz-adv-x="528" d="M538 432Q538 425 527 411Q408 288 282 113Q215 20 174 -73T132 -235Q132 -253 133 -263Q108 -280 83 -280Q30 -280 30 -233Q30 -169 74 -84T190 88Q314 237 446 361H307Q215 361 175 356T111 333Q104
328 88 305Q86 302 79 302Q58 302 58 313Q58 317 79 347T110 391T129 421T142 444L150 459Q153 466 154 468T161 470T174 466T181 460T171 437H390Q438 437 480 440T526 443Q538 443 538 432Z" />
<glyph unicode="8" glyph-name="eight" horiz-adv-x="498" d="M184 339Q107 403 107 478T179 619T334 685Q399 685 441 650T483 563T440 459T321 364Q423 282 423 195T347 48T176 -13Q106 -13 62 28T18 135T68 249T184 339ZM99 99T129 67T208 34T294 66T332 149T296
245T210 319Q99 242 99 150Q99 99 129 67ZM401 585T378 612T311 639T229 604T191 530Q191 483 224 448Q244 427 266 410T294 387Q339 414 370 460T401 545Z" />
<glyph unicode="9" glyph-name="nine" horiz-adv-x="519" d="M-62 -285Q-74 -285 -74 -273Q-74 -267 -68 -265Q104 -199 234 -68Q300 -2 339 83T378 249T350 371T279 413Q217 413 181 355T144 226Q144 187 164 158T225 129Q242 129 262 136T284 143Q295 143 295
132Q295 115 260 100T189 85Q125 85 83 131T40 235Q40 323 119 386T291 450Q366 450 423 391T480 243Q480 125 400 10T196 -183T-59 -285Q-60 -285 -62 -285Z" />
<glyph unicode=":" glyph-name="colon" horiz-adv-x="260" d="M197 22T181 5T141 -13T100 3T83 43T98 83T137 101T179 86T197 46ZM271 357T255 340T215 322T174 338T157 378T172 418T211 436T253 421T271 381Z" />
<glyph unicode=";" glyph-name="semicolon" horiz-adv-x="260" d="M271 357T255 340T215 322T174 338T157 378T172 418T211 436T253 421T271 381ZM159 -37Q159 -1 111 -1Q105 -1 98 -2Q72 11 72 40T88 85T133 102T183 76T203 16Q203 -49 169 -89T71 -164L60 -145Q102
-124 130 -93T159 -37Z" />
<glyph unicode="&lt;" glyph-name="less" horiz-adv-x="454" d="M434 400Q230 325 106 235Q131 204 208 154T363 70Q351 44 309 44T195 87T71 175T18 233T93 292T258 383T380 426T422 418T434 400Z" />
<glyph unicode="=" glyph-name="equal" horiz-adv-x="524" d="M502 334Q502 326 499 314H83Q54 314 54 344L55 355L462 360Q502 360 502 334ZM468 170Q468 161 464 150H48Q19 150 19 180L20 191L427 196Q468 196 468 170Z" />
<glyph unicode="&gt;" glyph-name="greater" horiz-adv-x="470" d="M27 70Q119 104 200 145Q313 202 354 235Q344 246 323 265T238 325T98 400Q110 426 152 426T266 383T390 295T442 237T368 178T203 87T81 44T39 52T27 70Z" />
<glyph unicode="?" glyph-name="question" horiz-adv-x="472" d="M110 134Q90 134 90 183T119 270T189 327T271 364T341 408T370 466T339 516T271 540T201 567T167 615T174 661T190 688L197 695Q214 666 257 645T340 612T411 576T443 506T419 422T360 361T283
316T206 277T146 231T122 167L127 142Q119 134 110 134ZM195 22T179 5T139 -13T98 3T81 43T96 83T135 101T177 86T195 46Z" />
<glyph unicode="@" glyph-name="at" horiz-adv-x="976" d="M664 406T681 424T709 442T720 430Q720 420 715 413Q703 396 675 338T613 180T580 61Q580 49 597 49Q722 49 808 144T894 351Q894 440 831 498T652 557T437 513T272 400T165 249T125 91Q125 -8 198 -69T422
-131Q512 -131 584 -106Q607 -98 610 -98Q620 -98 620 -108Q620 -124 594 -133Q489 -170 385 -170Q221 -170 141 -105T60 67Q60 152 108 245T236 418T432 548T682 600T887 538T959 382T907 200T757 50T547 -12Q492 -12 492 21Q492 53 548 194Q566 240 565 241Q381
-15 309 -15Q284 -15 267 2T250 51T262 130T300 233T358 336T437 417T523 450T589 439T627 417T644 406Q664 406 681 424ZM591 367T562 387T500 408T426 349T360 218T334 104T359 63Q387 63 478 171T601 347Q591 367 562 387Z" />
<glyph unicode="A" glyph-name="A" horiz-adv-x="558" d="M438 1L310 -2Q302 -2 302 7Q302 32 317 32H372Q397 32 397 57Q397 79 383 169T364 299Q337 300 296 300T202 297Q114 149 65 48Q59 33 71 33H138Q145 33 145 17T129 0L-1 1L-112 -2Q-120 -2 -120 8Q-120
32 -105 32H-58Q-35 32 -20 54Q6 93 74 190Q207 378 302 545Q341 612 385 649T467 687Q495 687 495 659Q463 649 449 634T435 593Q435 402 468 218T541 33H573Q581 33 581 17T568 0L438 1ZM226 337Q283 336 313 336T359 336Q342 460 342 523H338Q319 490 226 337Z"
/>
<glyph unicode="B" glyph-name="B" horiz-adv-x="632" d="M503 671T560 628T617 522T568 408T433 340Q500 318 539 281T579 189T532 83T427 9T317 -14T186 0T65 15T-15 4Q-15 7 -14 12T0 29T42 45T95 85T141 207L243 618Q179 616 103 579Q98 584 98 593T107 613T139
633T196 652Q268 671 400 671Q503 671 560 628ZM483 162Q483 232 426 282T272 336Q268 323 256 273T234 188T204 116T159 67L158 64Q171 68 196 68T279 59T379 50T452 84T483 162ZM341 375Q414 375 461 421T508 519T474 600T374 631Q344 631 333 585L283 383Q315
375 341 375Z" />
<glyph unicode="C" glyph-name="C" horiz-adv-x="638" d="M589 502Q603 551 603 565Q602 594 567 612T465 630Q366 630 290 577T176 440T138 261T200 106T349 46T519 111L545 177Q552 189 560 189Q572 189 584 162Q550 100 520 -4Q513 -26 503 -26Q485 -26 478
-21L484 8Q484 16 476 16Q474 16 422 3T326 -11Q194 -11 106 59T17 247T88 469T266 629T486 686Q500 686 526 684L609 675Q637 675 648 678T669 692Q676 697 680 697Q689 697 701 685Q679 662 659 608T638 515V513Q638 505 627 499T603 493T589 502Z" />
<glyph unicode="D" glyph-name="D" horiz-adv-x="690" d="M357 671Q674 671 674 362Q674 287 641 217T554 96T433 16T306 -14T165 0T42 15T-37 4Q-37 16 -24 28T11 44Q45 50 68 85T110 207L196 618Q132 616 57 579Q52 584 52 597T78 627T178 657T357 671ZM339
51Q425 51 498 135T571 343Q571 631 332 631Q303 631 293 585Q277 514 258 416T228 274T204 177T174 102T139 68L138 65Q151 69 176 69T250 60T339 51Z" />
<glyph unicode="E" glyph-name="E" horiz-adv-x="584" d="M463 -37L452 -38Q434 -38 434 -24Q434 -13 444 13Q374 -14 306 -14T158 0T37 15T-43 4Q-43 15 -29 27T14 45T69 85T119 207L236 618Q170 616 93 579Q88 584 88 597T116 627T217 657T396 671L505 670Q553
670 584 671Q585 671 586 678T592 693T609 701T620 694T603 629T586 542Q586 532 570 532T554 540L555 568Q555 589 548 602Q534 631 369 631Q339 631 326 585L264 360Q268 359 320 359T449 366Q471 423 476 427T494 432T507 426Q507 413 494 383T473 326T461 263Q459
240 437 239Q425 239 425 246Q425 258 428 303Q368 318 251 318Q247 305 234 257T211 177T180 111T134 64L133 61Q146 65 171 65T253 56T350 47Q422 47 467 81L492 131Q492 135 499 138T515 142T525 134L463 -37Z" />
<glyph unicode="F" glyph-name="F" horiz-adv-x="544" d="M358 671L467 670Q515 670 546 671Q547 671 548 678Q549 701 568 701Q571 701 575 698T580 690T569 633T557 552V542Q557 532 541 532T525 540Q524 549 523 569T514 602Q498 631 333 631Q304 631 294 585L246
349Q250 348 302 348T431 355Q449 412 456 418Q458 421 471 421T485 413Q485 404 475 373T457 317T450 268T449 240Q446 228 431 228T415 235L414 254Q414 274 414 292Q353 307 236 307Q235 304 227 269T214 219T199 171T179 118Q153 62 125 39Q148 39 187 34T250
29Q247 18 235 7T208 -4L48 15Q8 15 -32 4Q-32 16 -19 28T16 44Q50 50 73 85T115 207L201 618Q137 616 63 579Q57 586 57 594Q57 636 190 659Q260 671 358 671Z" />
<glyph unicode="G" glyph-name="G" horiz-adv-x="666" d="M553 88L552 26Q552 -38 528 -82T479 -127Q469 -127 463 -117Q509 -31 509 13Q509 21 501 21Q496 21 474 13Q410 -11 333 -11Q188 -11 98 56T8 243Q8 340 56 428Q149 598 346 662Q417 686 485 686Q505
686 525 684L608 675Q636 675 647 678T666 689T679 697Q689 697 700 685Q678 661 656 606T634 513Q634 498 610 494T585 502Q585 504 592 524T600 569T565 612T463 630Q362 630 285 577T169 441T130 262T192 105T345 43Q402 43 469 72Q490 129 493 206L494 233Q494
253 474 253H430Q419 253 386 250Q376 250 376 273T389 297Q475 291 538 291T658 300Q663 300 663 292T656 273T640 262Q614 262 596 253Q553 235 553 88Z" />
<glyph unicode="H" glyph-name="H" horiz-adv-x="738" d="M551 311Q505 314 433 314H330L248 313Q217 195 190 132T128 41L251 33Q256 32 256 14T231 -4Q72 9 27 9T-31 4Q-31 9 -31 15T-19 33T15 44Q16 44 17 44Q50 44 72 80T117 207L219 623Q153 621 78 584Q72
592 72 598Q74 632 142 648T286 665L397 670Q414 670 422 667Q422 641 410 636Q402 634 396 634Q381 636 344 636Q333 636 327 625T314 586Q279 434 258 354Q300 352 377 352T564 364L629 631Q618 634 603 634T569 630Q562 639 562 649T567 664T588 668L688 663Q733
663 756 667T786 671T799 668T806 654T799 636H753Q742 636 736 625T723 586Q656 296 622 188T540 41Q563 41 602 36T665 31Q662 18 649 7T621 -4L457 15Q426 15 388 4Q388 8 389 14T402 31T442 47T487 82T526 207L551 311Z" />
<glyph unicode="I" glyph-name="I" horiz-adv-x="394" d="M412 671Q433 671 433 658Q433 652 428 646T420 636H362Q351 636 345 625T332 586Q265 296 231 188T149 41Q172 41 211 36T274 31Q271 18 258 7T230 -4L66 15Q26 15 -13 4Q-13 8 -12 14T1 31T35 46Q71
51 94 85T138 207L240 623Q174 621 99 584Q93 592 93 598Q95 635 182 653T412 671Z" />
<glyph unicode="J" glyph-name="J" horiz-adv-x="348" d="M-180 -273Q-228 -273 -228 -228Q-228 -190 -194 -173Q-153 -208 -94 -208Q-32 -208 18 -75Q77 85 220 623Q154 621 79 584Q73 592 73 598Q76 635 162 653T390 671Q411 671 411 658Q411 652 406 646T398
636H340Q329 636 323 625T309 586Q191 141 151 31Q109 -86 41 -158Q-65 -273 -180 -273Z" />
<glyph unicode="K" glyph-name="K" horiz-adv-x="664" d="M512 657L568 656Q627 656 678 664Q692 664 692 649L688 630Q642 630 611 603Q512 508 367 383V380Q402 358 433 314T484 222T521 129T549 56T566 27L639 33Q645 20 645 12Q645 -2 500 -2H481Q469 -2 443
65T376 213T289 319Q282 313 234 274Q182 87 125 41Q148 41 187 36T250 31Q247 18 234 7T206 -4L42 15Q2 15 -37 4Q-37 8 -36 14T-23 31T11 46Q47 51 69 85T114 207Q219 629 215 629Q178 629 123 613Q120 621 120 626Q120 663 277 663L335 666Q376 666 376 656L370
638Q361 639 346 639T324 628T311 589Q270 413 252 342Q263 351 303 382T362 427T412 469Q470 517 524 577Q549 605 549 620Q549 630 526 630Q520 630 496 627Q496 657 512 657Z" />
<glyph unicode="L" glyph-name="L" horiz-adv-x="558" d="M440 -24Q440 -18 452 13Q386 -14 318 -14T172 0T54 15T-26 4Q-26 15 -11 27T28 44Q99 56 151 210L287 620Q229 616 149 579Q145 583 145 592T157 613T195 635T258 654Q343 674 469 674Q468 642 445 642Q399
642 390 615L286 318Q284 313 273 280T255 230T235 181T209 130Q177 79 145 65L144 62Q176 73 197 73T262 63T343 52Q435 52 483 85L509 138Q509 142 516 145T533 149T542 141L468 -37Q440 -37 440 -24Z" />
<glyph unicode="M" glyph-name="M" horiz-adv-x="897" d="M688 1L547 -2Q542 -2 542 6Q545 32 560 32H601Q633 32 640 57Q650 89 704 304T769 559Q562 266 398 74Q391 65 379 66T361 77Q383 108 393 123Q335 318 308 533Q297 500 224 317Q135 88 132 53Q131 33
150 33H207Q216 33 216 24T209 8T194 0L87 2L-24 -2Q-30 -2 -29 15T-15 32H16Q46 32 61 57Q64 61 81 102Q110 173 171 319Q278 566 278 621Q278 645 264 650T220 656T190 673L193 691Q381 681 406 676Q400 636 400 582T417 433T451 276L468 213Q739 569 780 678Q801
677 843 677T969 682Q973 683 974 680T976 671L975 658Q975 639 963 639L919 641Q889 641 878 608Q830 470 794 308T757 61Q757 43 759 38T770 33H819Q829 33 829 23Q828 15 823 8T811 0Q720 1 688 1Z" />
<glyph unicode="N" glyph-name="N" horiz-adv-x="747" d="M232 35Q213 -3 185 -3L50 15Q11 15 -29 4Q-29 16 -15 30T28 50T79 88T124 207L229 585Q215 606 199 616T171 628T138 630T85 618T45 605T35 618Q44 625 59 636T117 665T197 684T268 663T330 596T384 500Q469
334 545 222Q581 396 608 476T660 596T719 663T798 689T843 654Q843 627 822 606Q761 606 715 552T644 417Q597 260 597 138Q597 86 619 29L626 11Q626 -3 615 -3Q562 -3 270 513Q213 276 181 181T101 45Q124 45 166 40T232 35Z" />
<glyph unicode="O" glyph-name="O" horiz-adv-x="632" d="M110 537T199 610T398 684T565 614T624 438T578 232T442 61T239 -9T70 56T14 224T62 432ZM518 516T485 570T380 625T246 565T153 420T122 248T158 103T267 46T398 107T487 256T518 430Z" />
<glyph unicode="P" glyph-name="P" horiz-adv-x="554" d="M214 -4Q64 11 15 11T-35 6Q-35 38 13 41Q45 43 66 81T99 207L157 618Q93 616 22 579Q16 584 16 598T41 628T139 658T314 671Q367 671 420 651T514 585T555 477Q555 402 482 351T310 299Q262 299 219 312Q218
308 211 267T197 203T180 142Q160 70 125 39Q148 39 185 35T250 29Q247 16 237 6T214 -4ZM291 341Q355 341 400 380T445 483T399 589T292 631Q263 631 256 585L224 353Q257 341 291 341Z" />
<glyph unicode="Q" glyph-name="Q" horiz-adv-x="676" d="M300 119Q341 119 367 137Q378 137 378 128Q378 111 341 90T253 68Q162 68 111 130T59 280T106 462T241 619T428 684Q549 684 607 620T666 448Q666 375 622 277T508 92T345 -56T160 -117Q132 -117 115
-103T97 -68Q97 -34 133 -10T237 15T379 -15T521 -89T654 -176Q808 -281 891 -281Q914 -281 928 -270T943 -242T914 -205T851 -186Q854 -166 873 -149T920 -132T968 -149T989 -198Q989 -257 949 -300T841 -343T702 -311T571 -232T453 -140Q313 -29 218 -29Q169
-29 169 -48Q169 -60 188 -60Q273 -60 346 -7T464 126T534 288T559 440Q559 633 424 633Q351 633 292 581T202 452T171 298T204 170T300 119Z" />
<glyph unicode="R" glyph-name="R" horiz-adv-x="628" d="M493 109T527 69T583 29T629 45Q638 42 638 34Q638 20 603 4T533 -12T474 3T425 50Q386 102 354 160L272 303Q253 306 237 312Q235 306 228 275T215 225T200 173T180 119Q156 62 129 39Q142 39 176 35T239
30Q236 18 225 8T201 -3Q61 11 16 11T-32 6Q-32 22 -18 31T17 41Q82 46 111 207Q177 518 186 617Q125 615 52 578Q48 584 48 598T76 628T175 658T340 671T507 622T581 493T517 361T361 300Q394 269 422 225L468 150Q493 109 527 69ZM310 341Q375 341 421 381T472
489Q472 552 429 591T327 631Q298 631 288 585L244 353Q277 341 310 341Z" />
<glyph unicode="S" glyph-name="S" horiz-adv-x="500" d="M476 532Q476 525 462 525T448 534Q448 537 448 548T443 577Q406 640 343 640Q297 640 259 610T221 532Q221 477 298 406Q330 377 361 345T415 268T438 176Q438 84 374 36T219 -13T62 44Q49 20 45 3Q41
-3 31 -3Q17 -3 17 9Q17 17 24 30Q55 90 64 117T74 146T78 155T83 164T90 169Q97 174 113 167Q102 132 98 115Q117 80 153 56T232 32T308 60T343 137Q343 191 270 264Q239 295 209 327T158 402T136 489Q136 582 202 636T357 691Q419 691 468 665L477 687Q480 693
484 693Q490 693 502 682Q476 604 476 547Q476 539 476 532Z" />
<glyph unicode="T" glyph-name="T" horiz-adv-x="582" d="M234 1L93 -2Q87 -2 87 8Q86 32 100 32H143Q168 32 177 41T192 78L287 535Q296 577 296 598T205 620Q146 620 117 605T88 554T105 482Q76 448 42 448Q2 448 2 500T64 610T221 667Q329 667 440 658T556
649Q617 649 634 687Q639 698 646 698T654 694Q654 674 634 635T597 595Q527 595 405 607L304 121Q298 88 298 61T309 33H367Q371 33 371 27Q371 1 362 0Q273 1 234 1Z" />
<glyph unicode="U" glyph-name="U" horiz-adv-x="644" d="M619 671L720 674Q724 674 724 668V665Q724 654 719 647T710 640H682Q660 640 633 538Q571 300 512 192Q479 133 441 87T346 13T224 -15Q139 -15 82 37T25 178Q30 325 88 540Q107 608 107 635L3 639Q3
677 29 677Q136 672 176 672T258 676T309 680Q313 680 313 671T308 652T296 641H259Q234 641 224 632T208 595Q178 495 156 380T133 197Q137 127 169 91T258 54T364 88T444 179T498 299T532 430Q555 560 555 619Q554 639 545 639L482 637L484 648Q487 673 496 673L619
671Z" />
<glyph unicode="V" glyph-name="V" horiz-adv-x="500" d="M233 645Q213 645 203 637Q158 532 158 351T174 74H180Q271 178 362 337T453 603Q453 634 430 634L390 626Q390 647 410 655Q459 675 517 675Q545 675 545 654Q545 569 457 405T262 111T110 -19Q87 -19
75 62T62 228T65 370T71 469T79 546T86 601T89 624Q89 635 79 635L-2 628Q1 643 14 656T42 670Q184 670 262 681L238 645H233Z" />
<glyph unicode="W" glyph-name="W" horiz-adv-x="764" d="M149 305L151 91H155Q243 186 331 360T419 610Q419 626 400 626H366Q360 626 360 634Q363 658 375 658Q431 662 475 662L539 667Q478 458 478 99H483Q562 189 621 283T709 449Q759 572 766 634Q766 644
760 644H702Q694 644 694 651T699 667T710 676Q800 674 829 674Q847 674 847 650Q810 534 757 424T651 237T549 101T465 13T416 -16Q387 -16 387 167T415 442Q355 303 289 200T122 -8Q113 -17 96 -17T75 -8Q69 19 69 65T75 285T82 609Q82 622 77 626T59 629L-8
622Q2 666 24 666Q89 671 120 671L262 679Q267 679 267 670T256 652T231 642Q183 642 166 551T149 305Z" />
<glyph unicode="X" glyph-name="X" horiz-adv-x="710" d="M629 671L741 678Q759 678 759 660T746 642H718Q701 642 686 633T644 597T546 504T403 368Q406 358 414 319T429 260T446 203T469 145T498 100Q530 56 584 56Q607 56 627 74T650 92T655 90T658 84Q658
59 615 23T512 -14Q405 -14 345 242Q341 259 332 302Q233 221 163 139T93 35Q93 30 98 30H160Q168 30 168 23Q168 19 167 17Q162 -5 147 -5Q27 1 26 1L-85 -4Q-92 -4 -92 3T-87 20T-73 29H-54Q-41 29 -22 40T9 63Q169 223 323 343Q272 615 151 615Q128 615 103
600T77 584Q72 584 72 592T92 622T152 664T225 685T280 676T315 650T340 604Q362 549 380 458Q381 455 382 452Q384 448 392 411Q399 418 410 429T451 470T504 525Q563 591 563 616Q563 645 532 645T501 654Q501 678 514 678L629 671Z" />
<glyph unicode="Y" glyph-name="Y" horiz-adv-x="534" d="M57 -3Q53 -3 53 1T54 10T60 23T72 32H94Q138 32 173 149T209 386T181 574T94 643Q73 643 54 633T25 613L16 603Q3 606 3 615Q3 634 45 661T129 688Q324 688 324 447Q324 411 319 366Q415 459 460 527T513
635Q513 641 506 641H478Q473 641 473 648T480 664T492 673L604 672L672 676Q665 642 642 642Q613 642 599 624Q492 489 309 302Q285 174 248 68L235 33L327 39Q315 0 301 0Q189 1 166 1L57 -3Z" />
<glyph unicode="Z" glyph-name="Z" horiz-adv-x="574" d="M164 85T275 70T426 54T484 64T530 112Q535 120 540 120Q550 120 556 108Q488 -22 362 -22Q311 -22 174 -4T-4 15T-84 4Q-80 25 -45 40Q-27 48 49 134Q128 222 473 629Q429 619 248 619Q149 619 118 597Q104
579 104 509Q93 505 83 505Q65 505 65 522Q80 616 80 682Q80 691 84 695T98 701Q103 681 115 675T175 669H518Q569 669 588 675T609 681Q616 681 616 676Q616 669 601 654Q262 252 194 174T102 84L101 81Q114 85 139 85Z" />
<glyph unicode="[" glyph-name="bracketleft" horiz-adv-x="508" d="M365 -397H-2L270 886H638Q645 886 645 878T644 864Q638 840 628 840H334L81 -352H375Q385 -352 381 -375Q375 -397 365 -397Z" />
<glyph unicode="\" glyph-name="backslash" horiz-adv-x="324" d="M1 749Q18 766 32 766T54 746L336 -120Q315 -137 302 -137T281 -113L1 749Z" />
<glyph unicode="]" glyph-name="bracketright" horiz-adv-x="508" d="M-122 -397Q-130 -397 -130 -387Q-130 -382 -128 -375Q-124 -352 -112 -352H181L434 840H140Q128 840 133 863T150 886H518L245 -397H-122Z" />
<glyph unicode="^" glyph-name="asciicircum" horiz-adv-x="520" d="M107 251Q98 251 88 254Q303 547 350 616T407 688Q418 688 438 610L527 296Q532 286 532 279T531 269Q528 253 484 251L385 589H383L163 284Q135 251 107 251Z" />
<glyph unicode="_" glyph-name="underscore" horiz-adv-x="500" d="M459 -76Q500 -76 500 -103Q500 -111 497 -122H29Q13 -122 6 -112T0 -92L1 -81L459 -76Z" />
<glyph unicode="`" glyph-name="grave" horiz-adv-x="204" d="M5 676Q5 692 14 701T45 711T83 690T132 609T185 521T206 489Q204 480 195 480T182 483Q5 626 5 676Z" />
<glyph unicode="a" glyph-name="a" horiz-adv-x="486" d="M489 468T499 468T509 457Q509 450 503 440T479 404T435 327T372 188T337 83T348 66Q363 66 410 112T466 158T475 148T442 100T360 25T275 -13Q260 -13 251 -5T241 20T255 74T294 168T325 241Q127 -15
56 -15Q32 -15 16 1T0 50T24 149T86 283T184 400T303 450Q359 450 396 417Q409 406 413 406Q433 406 461 437ZM358 367T329 387T268 408T191 347T117 213T87 101T110 63Q138 63 234 171T367 347Q358 367 329 387Z" />
<glyph unicode="b" glyph-name="b" horiz-adv-x="460" d="M37 63Q27 75 27 88T41 135T75 227T114 339T155 452T204 561T263 650Q331 735 424 735Q463 735 465 708Q465 696 455 686T425 672Q405 683 387 683Q338 683 262 531T141 202Q313 452 385 452Q410 452 428
434T446 382T435 302T400 200T346 98T271 19T178 -13Q104 -13 37 63ZM116 70T146 50T208 29T278 86T340 214T364 329T337 374T222 266T105 90Q116 70 146 50Z" />
<glyph unicode="c" glyph-name="c" horiz-adv-x="335" d="M241 152Q252 152 252 141T225 94T153 21T68 -15Q44 -15 26 6T7 63T26 162T78 290T167 403T283 450Q378 450 378 395Q378 379 362 367T323 354Q298 408 252 408Q216 408 177 352T115 225T91 122Q91 63
116 63T169 85T216 130T241 152Z" />
<glyph unicode="d" glyph-name="d" horiz-adv-x="506" d="M680 672Q658 683 638 683T583 639T512 528Q405 326 353 156Q335 97 335 82T347 66Q362 66 407 112T461 158T470 148T439 100T361 25T278 -13Q262 -13 252 -4T242 22Q242 57 298 194L317 239L315 241Q131
-15 59 -15Q34 -15 17 2T0 51T12 130T50 233T108 336T187 417T286 450T384 410Q525 735 679 735Q721 735 721 708Q721 696 710 686T680 672ZM341 367T312 387T250 408T176 349T110 218T84 104T109 63Q137 63 228 171T351 347Q341 367 312 387Z" />
<glyph unicode="e" glyph-name="e" horiz-adv-x="336" d="M233 147Q243 147 243 136Q243 129 227 106T185 55T122 7T53 -15T6 4T-10 56Q-10 118 28 208T138 374T286 450Q319 450 340 438T362 399Q362 354 274 294T98 207Q76 137 76 100T100 63Q154 63 220 139Q227
147 233 147ZM254 408Q219 408 179 358T110 236Q280 324 280 381Q280 408 254 408Z" />
<glyph unicode="f" glyph-name="f" horiz-adv-x="288" d="M-135 -279Q-166 -279 -188 -262T-211 -219Q-211 -194 -185 -180Q-166 -197 -156 -204Q-129 -226 -100 -226T-43 -192T9 -89T56 50T109 224T166 399H85Q78 399 78 409Q78 432 91 432Q176 432 186 456Q244
602 305 668T460 735Q496 735 527 722T559 677Q559 656 545 642T505 625Q458 682 414 682T335 625T255 438H363Q369 438 371 426Q371 399 355 399H242Q228 362 202 281T154 133T99 -14T33 -149T-44 -241T-135 -279Z" />
<glyph unicode="g" glyph-name="g" horiz-adv-x="364" d="M78 -24H90Q21 29 21 66Q21 88 122 127Q95 134 69 164T42 243Q42 309 93 379T216 450T315 385Q325 444 355 487T429 531Q448 531 459 520T470 491Q470 458 438 441Q424 459 398 459T349 416T326 332T316
254T271 176T183 126Q157 122 126 109T95 79Q95 58 210 -14Q252 -40 288 -78T324 -151Q324 -200 259 -239T109 -279T-36 -239T-96 -138Q-96 -91 -39 -58T78 -24ZM243 -173Q243 -156 232 -143T215 -123T194 -104T172 -86Q141 -61 122 -48Q106 -45 90 -45Q44 -45
14 -70T-17 -136T29 -209T136 -241Q243 -241 243 -173ZM154 155Q186 155 210 192Q256 259 256 353Q256 419 217 419T145 350T112 218T154 155Z" />
<glyph unicode="h" glyph-name="h" horiz-adv-x="446" d="M369 683Q333 683 283 590T192 386T138 232H140Q237 386 308 429Q344 450 378 450T427 432T442 386T408 284T340 145T305 68T316 56T339 63T359 76T380 96L395 111Q399 113 400 113Q410 113 410 100Q410
79 357 32T269 -15Q227 -15 227 26Q227 62 287 196T348 354T326 378Q293 378 231 310Q159 230 82 43Q80 39 78 32T73 20T69 10T64 1T58 -6Q52 -13 38 -13T7 -2Q39 158 85 295T174 519T278 671T403 735Q424 735 435 727T447 706Q447 680 409 672Q385 683 369 683Z"
/>
<glyph unicode="i" glyph-name="i" horiz-adv-x="264" d="M235 478Q243 478 243 460T173 278T103 81Q103 66 113 66Q129 66 154 90T185 115Q195 115 195 105T174 68T115 14T43 -13Q29 -13 19 -4T9 22Q9 60 70 206T132 360Q123 354 89 335T42 302Q26 304 26 317T56
350T139 404T225 472Q231 478 235 478ZM304 585T290 571T255 556T219 570T204 605T218 641T254 656T290 642T304 606Z" />
<glyph unicode="j" glyph-name="j" horiz-adv-x="252" d="M167 360Q95 324 73 302Q58 304 58 315Q58 329 88 349T171 404T245 458T270 478Q278 478 278 460T200 249T79 -32Q-44 -279 -164 -279Q-195 -279 -215 -262T-236 -221T-208 -180Q-177 -209 -159 -217T-125
-226Q-66 -226 -3 -82Q31 -4 87 151T167 360ZM307 556T286 556T251 569T236 604T250 640T286 656T322 642T336 608T322 572Z" />
<glyph unicode="k" glyph-name="k" horiz-adv-x="492" d="M446 672Q424 683 403 683T346 639T270 524Q203 400 148 276H151Q214 370 276 410T385 450Q415 450 433 433T452 389Q452 339 389 294T201 228Q219 159 282 89T404 19T464 59Q464 69 458 76T437 83T410
70Q397 70 390 77T382 98T396 125T434 138T478 119T497 67T465 11T389 -13Q294 -13 227 51T128 222H125Q118 206 94 137T50 28T12 -13Q-8 -13 -21 -4Q12 132 95 322Q142 430 194 520T315 672T447 735Q488 735 488 710Q488 680 446 672ZM331 375Q267 375 152 247L153
245Q256 257 309 287T365 348Q365 375 331 375Z" />
<glyph unicode="l" glyph-name="l" horiz-adv-x="259" d="M363 683Q322 683 260 554T154 281T110 87Q110 66 124 66T180 112T230 158T240 148T214 100T144 25T64 -13T28 28Q28 59 44 137T94 317T171 512T274 670T397 735Q418 735 429 727T441 706Q441 680 403
672Q379 683 363 683Z" />
<glyph unicode="m" glyph-name="m" horiz-adv-x="749" d="M270 -15Q249 -15 236 -2Q250 33 290 118Q391 327 391 352T373 378Q342 378 276 310Q199 229 97 43Q74 -4 62 -10Q57 -13 44 -13T13 -2Q14 11 83 181T154 363Q151 361 110 338T53 302Q38 305 38 316T70
348T156 403T232 458T259 478T265 466T243 401T193 288T157 207H160Q165 213 197 256T251 324T306 382Q373 450 432 450T491 401T407 207H410Q415 213 447 256T501 324T556 382Q623 450 682 450T741 401Q741 368 696 292T605 147T559 67T567 56T585 59T604 70T620
82T638 98Q655 113 659 113Q669 113 669 101Q667 81 607 33T510 -15T474 17Q474 51 557 192T641 356T623 378Q590 378 533 317T424 182T328 47T270 -15Z" />
<glyph unicode="n" glyph-name="n" d="M218 478Q226 478 226 462T182 330T136 207H139Q142 211 163 241T195 286T230 330T272 377T315 413Q362 450 408 450Q467 450 467 394Q467 363 427 288T347 146T307 67T318 56Q340 56 370 84Q377 90 388 100Q402 113 405
113Q415 113 415 101Q415 81 358 33T264 -15T226 20T298 194T370 355T350 378Q317 378 252 310Q171 223 82 32Q78 24 76 20L71 10Q62 -8 56 -10T38 -13T7 -2Q7 11 64 181T122 363Q114 358 92 346Q47 320 25 302Q9 304 9 316T39 349T121 403T208 472Q214 478 218
478Z" />
<glyph unicode="o" glyph-name="o" horiz-adv-x="340" d="M248 52T205 17T116 -19T42 20T13 127T37 268T112 396T224 450Q270 450 298 415T327 324T313 214T274 105ZM102 33Q143 33 187 95T256 229T282 342Q282 404 236 404Q196 404 153 342T83 206T57 98T70 49T102 33Z" />
<glyph unicode="p" glyph-name="p" horiz-adv-x="500" d="M0 186Q0 235 167 343Q180 382 196 446T212 547L210 562Q215 563 231 563T263 548T278 504T251 384Q373 450 423 450Q488 450 488 365Q488 299 438 196Q413 143 381 97T301 19T210 -13T127 26Q64 -173
64 -214V-216Q66 -241 79 -241H151Q162 -241 162 -255T138 -270Q40 -269 5 -269L-105 -270Q-114 -270 -114 -257Q-114 -241 -95 -241H-58Q-40 -241 -34 -222Q-24 -193 43 -9T150 296Q48 227 14 166H12Q0 174 0 186ZM357 375Q310 375 238 339Q227 304 153 94Q166
75 195 53T242 30Q271 30 309 80T374 198T401 310Q401 375 357 375Z" />
<glyph unicode="q" glyph-name="q" horiz-adv-x="476" d="M220 -158Q203 -204 203 -222T216 -241H288Q297 -241 297 -252Q297 -270 271 -270Q173 -269 137 -269L27 -270Q20 -270 20 -258Q22 -241 41 -241H78Q94 -241 104 -222Q152 -120 327 239L325 241Q184 59
114 10Q79 -15 55 -15T15 2T0 51T23 147T85 280T183 399T307 450Q355 450 396 417Q409 406 413 406T425 411T444 426T464 445T487 467T506 486T520 492Q530 492 530 481Q530 475 520 461Q476 403 444 345Q349 190 220 -158ZM357 368T331 388T270 408T191 348T117
212T87 93Q87 63 110 63Q138 63 234 171T367 347Q357 368 331 388Z" />
<glyph unicode="r" glyph-name="r" horiz-adv-x="355" d="M291 419T316 434T365 450T401 437T413 405T401 371T366 348Q344 371 312 371T223 267T120 43Q109 13 99 0T67 -13T26 -2Q27 11 80 181T134 363Q132 362 91 339T35 302Q20 304 20 315Q20 328 51 348T135
403T224 472Q230 478 234 478Q242 478 242 467T225 407T184 297T153 211H156Q167 228 189 267T228 332T268 389Z" />
<glyph unicode="s" glyph-name="s" horiz-adv-x="310" d="M224 63T178 23T73 -17Q39 -17 21 -1T3 36T17 69T53 81Q79 29 114 29Q134 29 146 43T158 80Q158 120 116 193T73 300Q73 367 122 408T229 450Q268 450 286 435T305 394Q302 373 290 362T243 349Q239 375
224 389T188 404T149 388T131 346T145 293T178 242Q224 183 224 123Z" />
<glyph unicode="t" glyph-name="t" horiz-adv-x="291" d="M208 399Q106 116 106 91T118 66Q134 66 178 112T231 158T240 149T211 102T134 26T48 -13Q35 -13 25 -4T14 25T31 101T84 258T133 399H48Q41 399 41 408T45 425T55 432Q116 432 137 443Q164 457 181 551Q195
559 215 559Q253 559 253 533Q253 527 245 504Q226 450 222 438H326Q334 438 334 428T330 408T319 399H208Z" />
<glyph unicode="u" glyph-name="u" horiz-adv-x="491" d="M254 20Q254 65 310 174Q334 220 339 232H336Q332 227 304 191T260 136T213 84T158 33Q96 -14 45 -14T-6 34Q-6 85 137 292Q185 362 185 372T175 383T152 376T130 362Q100 340 88 328Q84 326 83 326Q74
326 75 342T137 406T234 454T270 422T183 245T95 79T113 58Q145 58 215 128Q295 208 402 396Q405 401 411 412T420 428T428 440Q438 452 454 452T486 441Q485 430 411 255T336 63T353 47T391 68T421 122Q423 125 427 125Q438 125 438 114Q438 75 391 30T290 -15Q254
-15 254 20Z" />
<glyph unicode="v" glyph-name="v" horiz-adv-x="449" d="M41 75Q41 145 112 296Q136 347 136 360T125 373Q97 373 31 299Q27 297 24 297T18 302T15 313T40 352T110 417T184 450T221 444T229 417T173 279T117 131Q117 68 168 68Q237 68 305 152T373 337Q373 376
344 414Q349 430 362 440T392 450Q432 450 432 390Q432 345 407 278T342 145T243 34T125 -13Q41 -13 41 75Z" />
<glyph unicode="w" glyph-name="w" horiz-adv-x="649" d="M384 -13Q358 -13 328 4T282 59Q192 -13 108 -13Q42 -13 42 65Q42 133 124 294Q152 347 152 360T142 373Q114 373 44 299Q42 297 38 297Q29 297 29 308T56 352T129 418T212 450Q234 450 241 445T249 425Q249
397 185 277T121 115Q121 68 168 68T270 104Q266 130 266 156T276 229T306 322T360 401T434 433T474 380T434 250T333 108Q358 68 422 68Q503 68 548 137T594 289T555 414Q559 429 571 439T601 450Q641 450 641 347Q641 271 613 191T524 49T384 -13ZM419 327Q419
358 395 358Q363 358 338 312T312 197Q312 166 319 141Q359 179 389 231T419 327Z" />
<glyph unicode="x" glyph-name="x" horiz-adv-x="514" d="M500 450Q557 450 557 404Q557 374 533 348T476 321Q466 321 461 324Q467 342 467 360T451 379Q424 379 283 231Q363 101 373 89T389 76Q411 76 411 154V162Q411 171 419 171Q438 171 438 121T423 29T381
-13Q367 -13 349 5Q321 36 233 176Q122 42 63 6Q32 -13 8 -13T-27 3T-39 44T-23 89T24 109Q33 109 37 108Q36 100 36 91Q36 58 59 58Q87 58 219 199Q197 235 144 325L131 347Q125 357 119 357Q97 357 97 273V265Q97 257 85 257Q69 257 69 308T84 405T127 450T188
394Q199 374 270 254Q277 262 303 293T349 346T398 394Q455 450 500 450Z" />
<glyph unicode="y" glyph-name="y" horiz-adv-x="380" d="M45 312L46 277Q46 267 37 267Q18 267 18 328T36 420T87 450Q164 450 206 364T248 150Q248 67 232 9Q304 157 304 281Q304 366 272 417Q294 450 324 450Q364 450 364 360Q364 251 308 96Q253 -59 153 -178Q105
-235 42 -269T-79 -304T-164 -289T-191 -247Q-191 -214 -148 -201Q-145 -203 -135 -210T-121 -220T-106 -228T-90 -236Q-73 -242 -53 -242Q27 -242 82 -190Q186 -92 186 113Q186 214 154 287T81 360Q62 360 55 349T45 312Z" />
<glyph unicode="z" glyph-name="z" horiz-adv-x="439" d="M462 420Q462 362 137 105Q192 98 240 71T323 44Q384 44 440 115Q450 112 450 96Q450 69 400 27T294 -15T180 8T80 32Q36 32 18 4Q10 -8 5 -9Q-6 -13 -16 -13Q-33 -13 -33 10Q-33 48 64 97Q105 129 200
210T361 345Q240 313 172 313T79 347Q70 359 70 379T97 431Q101 429 117 420T143 407T174 398Q210 388 280 388T408 391L452 439Q462 432 462 420Z" />
<glyph unicode="{" glyph-name="braceleft" horiz-adv-x="437" d="M246 157Q246 90 206 -41T165 -234T203 -326T339 -355Q359 -355 359 -373Q359 -383 355 -395T343 -407Q217 -407 160 -354T102 -214Q102 -153 138 -32T174 155Q174 242 77 242L48 240Q38 240 38
253T43 280T59 295Q75 293 88 293Q150 293 186 326T237 413T261 530T289 658T339 776T443 862T620 896Q626 896 626 882T618 856T594 844Q460 844 404 780Q356 726 341 631Q334 587 329 543T313 455T285 375T231 311T142 270L141 265Q246 261 246 157Z" />
<glyph unicode="|" glyph-name="bar" horiz-adv-x="204" d="M63 -151Q57 -151 48 -147L233 721Q239 753 267 753L282 749L94 -121Q87 -151 63 -151Z" />
<glyph unicode="}" glyph-name="braceright" horiz-adv-x="402" d="M306 270Q200 274 200 384Q200 438 236 553T272 727T234 815T98 844Q78 844 78 862Q78 872 82 884T94 896Q220 896 277 843T335 703Q335 648 304 542T273 380Q273 293 370 293L399 295Q408 295
408 269T388 240Q372 242 359 242Q288 242 255 203T205 88Q200 64 184 -28T162 -146Q138 -258 53 -332T-182 -407Q-188 -407 -188 -393T-180 -367T-156 -355Q-57 -355 -9 -326Q16 -311 33 -295T62 -252Q80 -207 89 -162T115 -18T138 107Q152 174 193 218T305 265L306
270Z" />
<glyph unicode="~" glyph-name="asciitilde" horiz-adv-x="458" d="M240 310L332 302Q425 302 459 386Q462 394 471 394Q483 394 483 383Q483 381 483 378Q470 320 428 281T324 241Q305 241 273 247T225 253Q184 253 149 231T97 166Q94 158 85 158Q72 158 72 171Q72
174 72 177Q87 237 132 273T240 310Z" />
</font>
</defs>
</svg>
